<svg width="227" height="247" viewBox="0 0 227 247" fill="none" xmlns="http://www.w3.org/2000/svg">
<path d="M203.042 89.0259V0H9.08984V89.0259V131.1H73.7599H138.43H203.129V89.0259H203.042Z" fill="#AFAFAE"/>
<path d="M71.8544 89.8625H14.8027V122.818H71.8544V89.8625Z" fill="#1C5C92"/>
<path d="M134.593 89.8625H77.541V122.818H134.593V89.8625Z" fill="#1C5C92"/>
<path d="M197.3 89.8625H140.248V122.818H197.3V89.8625Z" fill="#002D56"/>
<path d="M33.9364 229.534H13.332V232.131H33.9364V229.534Z" fill="#1D2C2C"/>
<path d="M26.2903 224.513H20.9805V229.534H26.2903V224.513Z" fill="#999999"/>
<path d="M198.858 229.534H178.254V232.131H198.858V229.534Z" fill="#1D2C2C"/>
<path d="M191.21 224.513H185.9V229.534H191.21V224.513Z" fill="#999999"/>
<path d="M203.129 137.738H9.08984V224.513H203.129V137.738Z" fill="#AFAFAE"/>
<path d="M210.661 131.1H0V137.766H210.661V131.1Z" fill="#6A6A6A"/>
<path d="M197.299 5.36792H14.8027V81.2925H197.299V5.36792Z" fill="#002D56"/>
<path d="M9.08984 137.738V142.701L203.129 224.513V137.738H9.08984Z" fill="#9A9A99"/>
<path d="M48.2786 76.7618C48.2268 76.7619 48.1756 76.7514 48.128 76.7308C48.0805 76.7101 48.0378 76.6799 48.0026 76.6419C47.9673 76.604 47.9403 76.5591 47.9233 76.5102C47.9062 76.4613 47.8995 76.4094 47.9035 76.3578V8.65767C47.8995 8.60603 47.9062 8.55413 47.9233 8.50523C47.9403 8.45633 47.9673 8.41149 48.0026 8.37354C48.0378 8.33559 48.0805 8.30534 48.128 8.28471C48.1756 8.26408 48.2268 8.25351 48.2786 8.25366C48.3858 8.25366 48.4885 8.29623 48.5643 8.372C48.64 8.44776 48.6826 8.55052 48.6826 8.65767V76.3578C48.6826 76.4649 48.64 76.5677 48.5643 76.6435C48.4885 76.7192 48.3858 76.7618 48.2786 76.7618Z" fill="#A1BFEC"/>
<path d="M196.232 76.8192H48.3074C48.185 76.8192 48.0675 76.7705 47.9809 76.6839C47.8944 76.5973 47.8457 76.4799 47.8457 76.3574C47.8531 76.24 47.9049 76.1299 47.9907 76.0494C48.0765 75.969 48.1898 75.9243 48.3074 75.9246H196.232C196.347 75.9246 196.457 75.9702 196.538 76.0513C196.619 76.1325 196.665 76.2426 196.665 76.3574C196.665 76.475 196.62 76.5883 196.54 76.6741C196.459 76.7599 196.349 76.8118 196.232 76.8192Z" fill="#A1BFEC"/>
<path d="M196.347 8.51294H48.2207V8.7438H196.347V8.51294Z" fill="#A1BFEC"/>
<path d="M188.672 8.62842H188.441V76.4728H188.672V8.62842Z" fill="#A1BFEC"/>
<path d="M153.61 8.62842H153.379V76.4728H153.61V8.62842Z" fill="#A1BFEC"/>
<path d="M118.547 8.62842H118.316V76.4728H118.547V8.62842Z" fill="#A1BFEC"/>
<path d="M83.4848 8.62842H83.2539V76.4728H83.4848V8.62842Z" fill="#A1BFEC"/>
<path d="M196.347 22.0469H48.2207V22.2777H196.347V22.0469Z" fill="#A1BFEC"/>
<path d="M196.347 35.6106H48.2207V35.8415H196.347V35.6106Z" fill="#A1BFEC"/>
<path d="M196.347 49.1448H48.2207V49.3756H196.347V49.1448Z" fill="#A1BFEC"/>
<path d="M196.347 62.7078H48.2207V62.9386H196.347V62.7078Z" fill="#A1BFEC"/>
<path d="M49.3179 57.8882C49.104 57.881 48.8992 57.7996 48.7386 57.6581C48.5781 57.5166 48.4716 57.3237 48.4376 57.1124C48.4035 56.9011 48.4439 56.6845 48.5518 56.4996C48.6597 56.3148 48.8285 56.1732 49.0293 56.0991L160.968 18.9592L196.232 11.3408C196.466 11.2911 196.709 11.3361 196.91 11.466C197.11 11.5959 197.25 11.8 197.3 12.0334C197.35 12.2668 197.305 12.5105 197.175 12.7107C197.045 12.9109 196.841 13.0514 196.607 13.1011L161.43 20.7196L49.6065 57.7151L49.3179 57.8882Z" fill="#FF7E00"/>
<path d="M120.423 62.2745L102.791 54.4829L49.0579 39.5346C48.9409 39.5047 48.8312 39.4515 48.7353 39.378C48.6395 39.3046 48.5595 39.2126 48.5002 39.1074C48.4409 39.0023 48.4034 38.8862 48.3902 38.7662C48.3769 38.6462 48.3881 38.5247 48.423 38.4092C48.4964 38.1812 48.653 37.9893 48.8616 37.8716C49.0701 37.754 49.3154 37.7192 49.5484 37.7743L103.31 52.7803L120.394 60.3121L157.909 46.9799L196.232 42.305C196.35 42.2845 196.471 42.2889 196.588 42.3177C196.704 42.3466 196.813 42.3993 196.908 42.4726C197.003 42.5458 197.082 42.638 197.139 42.7433C197.197 42.8486 197.232 42.9646 197.242 43.0841C197.258 43.2055 197.25 43.3289 197.218 43.4472C197.186 43.5654 197.131 43.6761 197.056 43.7728C196.98 43.8694 196.887 43.9502 196.78 44.0103C196.673 44.0704 196.556 44.1087 196.434 44.123L158.717 48.7402L120.423 62.2745Z" fill="#A1BFEC"/>
<path d="M49.3183 73.9907C49.0733 74.0251 48.8248 73.9608 48.6272 73.812C48.4297 73.6632 48.2994 73.442 48.2649 73.1971C48.2305 72.9522 48.2948 72.7036 48.4436 72.5061C48.5924 72.3085 48.8136 72.1782 49.0585 72.1438L113.411 57.7149L182.035 27.7029L196.464 26.4332C196.704 26.4171 196.941 26.4957 197.124 26.652C197.308 26.8084 197.423 27.0302 197.445 27.2701C197.457 27.3899 197.444 27.5109 197.408 27.6258C197.372 27.7407 197.313 27.8472 197.235 27.9388C197.157 28.0304 197.061 28.1053 196.953 28.159C196.846 28.2127 196.728 28.2441 196.608 28.2512L182.496 29.4921L113.988 59.3598L49.5203 73.9618L49.3183 73.9907Z" fill="#BD0000"/>
<path d="M102.444 56.0417C103.751 56.0417 104.811 54.9823 104.811 53.6754C104.811 52.3685 103.751 51.3091 102.444 51.3091C101.138 51.3091 100.078 52.3685 100.078 53.6754C100.078 54.9823 101.138 56.0417 102.444 56.0417Z" fill="#A1BFEC"/>
<path d="M120.798 63.6597C122.105 63.6597 123.164 62.6002 123.164 61.2933C123.164 59.9864 122.105 58.927 120.798 58.927C119.491 58.927 118.432 59.9864 118.432 61.2933C118.432 62.6002 119.491 63.6597 120.798 63.6597Z" fill="#A1BFEC"/>
<path d="M155.832 48.0765C155.832 48.5515 155.973 49.0157 156.238 49.4102C156.502 49.8046 156.878 50.1116 157.318 50.292C157.757 50.4724 158.24 50.5181 158.705 50.4233C159.171 50.3286 159.597 50.0976 159.931 49.7597C160.265 49.4218 160.491 48.9924 160.58 48.5259C160.669 48.0593 160.618 47.5769 160.432 47.1397C160.246 46.7026 159.935 46.3306 159.537 46.0709C159.139 45.8112 158.673 45.6756 158.199 45.6813C157.885 45.6813 157.575 45.7435 157.286 45.8642C156.997 45.9849 156.735 46.1618 156.515 46.3846C156.295 46.6074 156.121 46.8717 156.004 47.1621C155.887 47.4525 155.828 47.7633 155.832 48.0765Z" fill="#A1BFEC"/>
<path d="M113.583 60.7451C114.89 60.7451 115.949 59.6857 115.949 58.3788C115.949 57.0719 114.89 56.0125 113.583 56.0125C112.276 56.0125 111.217 57.0719 111.217 58.3788C111.217 59.6857 112.276 60.7451 113.583 60.7451Z" fill="#BD0000"/>
<path d="M182.034 30.8489C183.341 30.8489 184.401 29.7894 184.401 28.4825C184.401 27.1757 183.341 26.1162 182.034 26.1162C180.727 26.1162 179.668 27.1757 179.668 28.4825C179.668 29.7894 180.727 30.8489 182.034 30.8489Z" fill="#BD0000"/>
<path d="M160.507 22.1628C161.814 22.1628 162.873 21.1034 162.873 19.7965C162.873 18.4896 161.814 17.4302 160.507 17.4302C159.2 17.4302 158.141 18.4896 158.141 19.7965C158.141 21.1034 159.2 22.1628 160.507 22.1628Z" fill="#FF7E00"/>
<path d="M46.288 9.78247H18.498V15.5251H46.288V9.78247Z" fill="#1C5C92"/>
<path d="M46.288 17.199H18.498V22.9417H46.288V17.199Z" fill="#1C5C92"/>
<path d="M46.288 24.6157H18.498V30.3584H46.288V24.6157Z" fill="#FF7E00"/>
<path d="M46.288 32.0034H18.498V37.7461H46.288V32.0034Z" fill="#FF7E00"/>
<path d="M46.288 39.4192H18.498V45.1619H46.288V39.4192Z" fill="#FF7E00"/>
<path d="M46.288 46.8359H18.498V52.5786H46.288V46.8359Z" fill="#FF7E00"/>
<path d="M46.288 54.2524H18.498V59.9951H46.288V54.2524Z" fill="#BD0000"/>
<path d="M46.288 61.6404H18.498V67.3831H46.288V61.6404Z" fill="#BD0000"/>
<path d="M46.288 69.0562H18.498V74.7988H46.288V69.0562Z" fill="#BD0000"/>
<path d="M14.8027 89.8625L68.4492 93.5852L71.8544 122.789V89.8625H14.8027Z" fill="#0F3960"/>
<path d="M140.248 89.8625L193.894 93.5852L197.3 122.789V89.8625H140.248Z" fill="#002E56"/>
<path d="M77.541 89.8625L131.187 93.5852L134.593 122.789V89.8625H77.541Z" fill="#0F3960"/>
<path d="M195.54 175.166H187.229V234.353H195.54V175.166Z" fill="#4F4F4F"/>
<path d="M215.826 159.294H211.209V175.772H215.826V159.294Z" fill="#4F4F4F"/>
<path d="M211.527 168.962H165.269C162.894 168.962 160.969 170.887 160.969 173.261V176.609C160.969 178.984 162.894 180.909 165.269 180.909H211.527C213.902 180.909 215.827 178.984 215.827 176.609V173.261C215.827 170.887 213.902 168.962 211.527 168.962Z" fill="#002D56"/>
<path d="M223.388 91.6956L222.041 91.5372C220.046 91.3025 218.239 92.7291 218.005 94.7235L210.283 160.355C210.049 162.349 211.475 164.156 213.47 164.391L214.817 164.549C216.811 164.784 218.618 163.357 218.853 161.363L226.574 95.7316C226.809 93.7373 225.382 91.9303 223.388 91.6956Z" fill="#002D56"/>
<path d="M221.05 93.5851C220.679 93.5445 220.307 93.6521 220.015 93.8845C219.723 94.117 219.535 94.4554 219.491 94.8259L211.873 159.554C211.84 159.923 211.95 160.291 212.181 160.581C212.412 160.872 212.746 161.062 213.114 161.112C213.296 161.132 213.48 161.116 213.656 161.064C213.832 161.012 213.995 160.926 214.138 160.811C214.28 160.695 214.398 160.553 214.485 160.392C214.571 160.23 214.625 160.053 214.643 159.871L222.204 95.23C222.237 95.0461 222.234 94.8574 222.193 94.6749C222.153 94.4925 222.077 94.3197 221.97 94.1668C221.863 94.0138 221.726 93.8837 221.568 93.7838C221.41 93.684 221.234 93.6164 221.05 93.5851Z" fill="#00233F"/>
<path d="M174.819 241.221C174.819 242.18 174.535 243.117 174.002 243.915C173.469 244.712 172.712 245.333 171.826 245.7C170.941 246.067 169.966 246.163 169.025 245.976C168.085 245.789 167.221 245.327 166.543 244.649C165.865 243.971 165.403 243.107 165.216 242.167C165.029 241.227 165.125 240.252 165.492 239.366C165.859 238.48 166.48 237.723 167.278 237.19C168.075 236.657 169.012 236.373 169.971 236.373C171.257 236.373 172.49 236.884 173.399 237.793C174.308 238.702 174.819 239.935 174.819 241.221Z" fill="#303030"/>
<path d="M218.741 241.221C218.741 242.18 218.457 243.117 217.924 243.915C217.391 244.712 216.634 245.333 215.748 245.7C214.862 246.067 213.888 246.163 212.947 245.976C212.007 245.789 211.143 245.327 210.465 244.649C209.787 243.971 209.325 243.107 209.138 242.167C208.951 241.227 209.047 240.252 209.414 239.366C209.781 238.48 210.402 237.723 211.2 237.19C211.997 236.657 212.934 236.373 213.893 236.373C214.53 236.373 215.16 236.498 215.748 236.742C216.336 236.986 216.871 237.343 217.321 237.793C217.771 238.243 218.128 238.778 218.372 239.366C218.616 239.954 218.741 240.584 218.741 241.221Z" fill="#303030"/>
<path d="M220.299 238.422H162.584C162.584 237.34 163.012 236.302 163.774 235.535C164.536 234.767 165.571 234.332 166.653 234.324H216.23C217.312 234.332 218.347 234.767 219.109 235.535C219.872 236.302 220.299 237.34 220.299 238.422Z" fill="#4F4F4F"/>
<g style="mix-blend-mode:soft-light">
<path d="M194.183 180.303H192.105V234.324H194.183V180.303Z" fill="#99A2A9"/>
</g>
<path d="M168.73 73.7602C169.962 72.3768 171.046 70.868 171.963 69.2584C172.886 67.3538 175.05 61.7554 176.493 61.438C177.936 61.1205 180.389 66.3149 178.6 69.6913C176.437 73.0733 173.995 76.2684 171.299 79.2431L168.73 73.7602Z" fill="#FFA47C"/>
<path d="M186.116 55.0974L179.694 53.8049C178.975 53.6602 178.275 54.1256 178.131 54.8443L174.891 70.9415C174.746 71.6603 175.211 72.3602 175.93 72.5048L182.352 73.7974C183.071 73.942 183.771 73.4767 183.915 72.7579L187.155 56.6607C187.3 55.942 186.835 55.2421 186.116 55.0974Z" fill="#303030"/>
<path d="M171.963 69.2581C172.073 67.6436 172.363 66.0465 172.829 64.4966C172.829 64.208 172.829 63.7463 172.829 63.4577C172.829 63.1691 173.175 62.8517 173.233 62.6497C173.29 62.4477 173.233 62.2168 173.233 62.0148C173.233 61.8128 173.665 61.4954 173.752 61.2357C173.839 60.976 173.752 60.6008 173.752 60.3988C173.925 59.5908 174.474 59.7351 174.531 59.5042C174.635 59.1238 174.78 58.7561 174.964 58.4076C176.141 57.5566 177.475 56.9484 178.889 56.6184C179.408 56.6184 182.294 55.7239 182.438 55.9836C182.583 56.2433 182.438 57.4265 180.851 58.0902C179.831 58.4686 178.861 58.9727 177.965 59.5908C179.048 59.6315 180.123 59.7961 181.168 60.0814C181.688 60.2545 181.601 60.8317 181.37 61.2357C181.14 61.6397 179.783 61.8705 179.783 61.8705C179.783 61.8705 180.476 62.7363 180.36 62.9383C180.014 63.6597 178.831 63.6309 178.456 63.7463C178.081 63.8617 179.235 64.4677 179.062 64.7852C178.369 65.9106 175.282 65.016 175.137 66.3435C175.368 67.0649 173.867 69.489 171.963 69.2581Z" fill="#FFBD95"/>
<path d="M139.181 221.858C140.372 223.872 141.129 226.113 141.403 228.437C141.547 230.284 140.451 234.209 139.239 234.209C135.468 234.179 131.699 234.391 127.955 234.844C124.348 235.334 123.021 237.441 113.786 237.412C111.103 237.412 106.197 237.239 106.341 236.113C106.485 234.988 115.2 232.997 117.884 230.342C121.31 226.877 125.377 224.113 129.86 222.204C132.958 221.915 136.07 221.8 139.181 221.858Z" fill="#191919"/>
<path d="M130.322 235.911H139.557V234.151H130.322V235.911Z" fill="#191919"/>
<path d="M171.789 148.877C171.789 148.877 137.16 160.218 135.631 161.863C134.101 163.508 124.463 224.773 124.463 224.773C126.979 226.61 130.005 227.618 133.12 227.658C135.918 228.015 138.749 228.015 141.547 227.658C141.547 227.658 151.099 188.325 150.781 183.131C150.808 178.739 151.38 174.367 152.484 170.116C152.484 170.116 192.884 168.125 195.597 165.73C211.382 152.109 194.01 144.346 194.01 144.346L173.146 145.558L171.789 148.877Z" fill="#191919"/>
<path d="M187.576 85.6497C190.808 90.2958 187.922 94.307 183.16 97.1928C178.399 100.079 152.283 110.496 149.137 109.082C147.492 108.332 143.366 103.109 144.982 101.031C146.598 98.9531 168.674 87.41 173.147 85.7074C177.62 84.0048 183.651 80.1956 187.576 85.6497Z" fill="#B5CCF9"/>
<path d="M200.099 60.8032C200.099 60.8032 201.195 76.7904 201.773 77.8581C203.619 81.321 210.747 83.8894 212.767 88.1603C215.22 93.3258 206.621 115.085 204.889 122.79C203.158 130.495 205.062 146.857 206.246 154.533C207.429 162.209 185.468 166.769 184.602 166.769C180.203 164.148 176.233 160.868 172.828 157.044C171.357 154.591 174.56 135.4 174.531 130.466C174.502 125.531 173.348 108.274 173.117 107.149C172.227 102.117 172.473 96.9508 173.838 92.0272C174.127 90.4401 174.04 87.7852 174.848 86.7463C176.436 84.7262 185.295 82.0136 185.439 80.9747C185.583 79.9359 186.767 65.8245 186.767 65.8245L200.099 60.8032Z" fill="#FFBD95"/>
<path d="M150.81 243.126H160.045V241.308H150.81V243.126Z" fill="#191919"/>
<path d="M159.67 228.611C160.841 230.702 161.577 233.009 161.835 235.392C161.835 237.297 160.882 241.337 159.67 241.337C155.899 241.302 152.129 241.524 148.387 242.001C144.78 242.491 143.452 244.655 134.218 244.655C131.534 244.655 126.628 244.453 126.773 243.328C126.917 242.203 135.632 240.096 138.518 237.383C141.864 233.759 145.882 230.819 150.349 228.726C153.451 228.5 156.564 228.461 159.67 228.611Z" fill="#191919"/>
<path d="M201.774 77.9158L186.45 87.3234L185.44 80.8015C185.44 80.8015 176.61 82.2733 175.398 84.3222C174.106 87.6551 173.139 91.1053 172.512 94.6244C171.967 99.8527 171.967 105.123 172.512 110.352C172.916 114.161 172.829 119.24 173.407 125.762C173.675 132.36 173.588 138.969 173.147 145.558C177.651 146.696 182.305 147.124 186.941 146.828C193.611 146.565 200.245 145.715 206.766 144.288C208.613 142.759 205.208 132.572 206.333 124.867C206.593 123.222 213.836 94.7687 214.009 91.0749C214.135 89.4998 213.766 87.9248 212.954 86.5694C212.142 85.2141 210.927 84.146 209.479 83.5142C206.755 81.8722 204.177 79.9991 201.774 77.9158Z" fill="#CEE0FF"/>
<path d="M191.932 101.377C198.713 86.7457 207.775 83.6868 207.775 83.6868L209.073 83.3694L209.419 83.5714C210.868 84.2032 212.083 85.2713 212.895 86.6266C213.707 87.982 214.076 89.557 213.95 91.1321C213.777 94.8259 206.534 123.28 206.274 124.924C205.149 132.629 208.554 142.816 206.707 144.346C201.187 145.931 195.481 146.775 189.739 146.856L175.31 146.452C174.54 146.145 173.749 145.894 172.943 145.702C173.478 139.137 173.661 132.548 173.492 125.963C173.145 122.183 173.145 119.066 173.145 116.325C173.145 116.325 185.15 116.036 191.932 101.377Z" fill="#B5CCF9"/>
<path d="M206.765 144.288C207.154 148.968 207.086 153.675 206.563 158.342C205.668 164.95 204.052 172.367 188.613 173.81C173.174 175.253 163.593 176.061 163.103 176.118C162.612 176.176 164.286 189.364 163.651 198.598C163.016 207.833 161.977 232.218 161.977 232.218C158.875 232.943 155.699 233.311 152.512 233.314C146.394 233.314 144.403 231.265 144.403 231.265C144.403 231.265 140.19 173.55 141.662 168.731C144.143 160.622 170 153.985 170.952 152.57C171.855 150.33 172.551 148.012 173.03 145.645L206.765 144.288Z" fill="#303030"/>
<path d="M208.352 84.2647C213.777 85.8231 214.123 90.9597 212.017 96.385C209.91 101.81 194.212 127.696 192.48 128.302C190.749 128.908 182.236 125.676 182.178 122.992C182.12 120.308 194.529 98.1164 196.924 93.9032C199.319 89.69 202.003 82.4467 208.352 84.2647Z" fill="#CEE0FF"/>
<path d="M198.512 63.8619L186.132 73.2406L185.959 75.2895L197.329 77.3384L201.109 74.8566L200.07 63.4001L198.512 63.8619Z" fill="#FFA47C"/>
<path d="M183.276 44.5854C187.027 41.1225 197.965 37.9482 203.217 45.3069C205.239 48.0919 206.328 51.4456 206.328 54.8876C206.328 58.3296 205.239 61.6833 203.217 64.4684C201.142 67.8392 198.035 70.4504 194.357 71.9137C190.928 72.8499 187.377 73.2681 183.824 73.1545C182.728 72.7794 181.977 64.4972 181.66 64.4972C181.364 64.4898 181.078 64.3877 180.844 64.2059C180.611 64.0241 180.441 63.7722 180.361 63.4872C180.361 62.5349 181.371 56.6191 181.14 56.0131C180.91 55.4071 178.918 48.5966 183.276 44.5854Z" fill="#FFBD95"/>
<path d="M181.023 48.2501C181.023 48.2501 187.17 44.7294 194.702 51.9438C196.318 53.5022 193.173 59.9951 193.577 60.6012C193.981 61.2072 199.666 55.8396 199.348 56.5899C197.068 64.1218 199.348 68.3062 200.098 68.335C202.118 68.4793 208.496 57.8597 205.495 49.2312C204.462 46.3725 202.511 43.9361 199.948 42.3022C197.385 40.6682 194.353 39.9286 191.326 40.1988C188.975 40.2704 186.709 41.0897 184.856 42.5376C183.004 43.9856 181.661 45.9867 181.023 48.2501Z" fill="#8D3B26"/>
<path d="M195.828 58.1483C195.107 60.5435 194.731 63.9199 196.001 64.1796C197.271 64.4393 198.887 62.9387 199.608 60.5435C200.33 58.1483 199.926 55.8686 198.685 55.4646C197.444 55.0605 196.578 55.7531 195.828 58.1483Z" fill="#FFBD95"/>
<path d="M187.228 84.0049L186.449 87.2658L190.056 85.1015L187.228 84.0049Z" fill="#B8D1FF"/>
<path d="M145.586 108.216C140.277 104.667 148.097 94.2202 152.166 89.3144C156.235 84.4086 169.481 71.4226 169.481 71.4226L175.021 75.7513C175.021 75.7513 156.697 103.599 155.6 105.042C154.503 106.485 150.983 111.823 145.586 108.216Z" fill="#B5CCF9"/>
<path d="M186.449 87.2656L186.16 83.8315L184.891 85.3321L186.449 87.2656Z" fill="#B8D1FF"/>
<path d="M207.025 144.029V147.55L172.482 147.867L173.031 143.711L207.025 144.029Z" fill="#3B1B1D"/>
<path d="M174.502 147.867H175.54C176.092 147.867 176.62 147.648 177.01 147.258C177.399 146.869 177.618 146.34 177.618 145.789C177.618 145.238 177.399 144.71 177.01 144.32C176.62 143.93 176.092 143.711 175.54 143.711H174.502C173.953 143.719 173.429 143.94 173.041 144.328C172.653 144.716 172.431 145.24 172.424 145.789C172.424 146.34 172.643 146.869 173.032 147.258C173.422 147.648 173.951 147.867 174.502 147.867Z" fill="#722C1D"/>
<path d="M188.643 86.3711L184.574 85.2456L184.199 89.2568L186.364 89.9494L188.643 86.3711Z" fill="#303030"/>
<path d="M186.363 89.9492C184.176 95.9444 182.496 102.113 181.342 108.389C180.13 116.469 179.784 141.172 179.784 141.172L175.397 146.308L173.781 139.988C173.781 139.988 175.946 116.123 178.139 107.437C179.797 101.262 181.821 95.1915 184.199 89.2566L186.363 89.9492Z" fill="#303030"/>
<path d="M203.216 78.4928L201.109 74.8567L187.229 84.0046L188.556 88.0158L203.216 78.4928Z" fill="#E0F2FF"/>
<path d="M186.16 83.8312L185.612 79.012L183.477 81.032L184.14 86.6304L186.16 83.8312Z" fill="#E0F2FF"/>
<path d="M151.1 115.43L152.167 114.449C152.28 114.342 152.43 114.281 152.586 114.281C152.742 114.281 152.891 114.342 153.004 114.449C153.114 114.567 153.175 114.721 153.175 114.882C153.175 115.043 153.114 115.197 153.004 115.315L151.965 116.296C151.911 116.353 151.847 116.398 151.775 116.429C151.703 116.46 151.625 116.476 151.547 116.476C151.469 116.476 151.391 116.46 151.319 116.429C151.247 116.398 151.182 116.353 151.128 116.296C151.069 116.242 151.021 116.176 150.987 116.102C150.953 116.029 150.935 115.95 150.932 115.869C150.929 115.789 150.943 115.708 150.972 115.633C151 115.557 151.044 115.489 151.1 115.43Z" fill="#90A4A2"/>
<path d="M136.15 130.956C135.746 130.552 137.305 128.388 137.709 128.07L150.608 115.431C150.704 115.334 150.819 115.257 150.945 115.204C151.072 115.152 151.207 115.125 151.344 115.125C151.481 115.125 151.616 115.152 151.742 115.204C151.869 115.257 151.983 115.334 152.08 115.431C152.177 115.527 152.253 115.642 152.306 115.768C152.358 115.894 152.385 116.03 152.385 116.166C152.385 116.303 152.358 116.439 152.306 116.565C152.253 116.691 152.177 116.806 152.08 116.902L139.209 129.542C138.747 129.859 136.554 131.36 136.15 130.956Z" fill="#4B5B60"/>
<path d="M151.398 117.525L149.781 115.959L149.038 116.726L150.655 118.292L151.398 117.525Z" fill="#90A4A2"/>
<path d="M146.338 121.202C146.306 121.17 146.28 121.132 146.263 121.09C146.245 121.048 146.236 121.003 146.236 120.957C146.236 120.912 146.245 120.866 146.263 120.824C146.28 120.782 146.306 120.744 146.338 120.712L150.551 116.441C150.622 116.387 150.708 116.358 150.797 116.358C150.885 116.358 150.972 116.387 151.042 116.441C151.096 116.511 151.125 116.598 151.125 116.686C151.125 116.775 151.096 116.861 151.042 116.931L146.8 121.202C146.736 121.259 146.654 121.291 146.569 121.291C146.484 121.291 146.402 121.259 146.338 121.202Z" fill="#C9DAD8"/>
<path d="M151.878 125.242L145.327 120.51C143.521 121.004 141.763 121.661 140.075 122.472C138.935 124.059 137.913 125.728 137.016 127.464C136.699 128.013 136.641 128.907 137.016 128.994C137.651 128.56 138.366 128.257 139.119 128.104C139.872 127.95 140.649 127.949 141.402 128.099C143.453 128.924 145.594 129.505 147.78 129.831C151.618 129.859 151.878 125.242 151.878 125.242Z" fill="#FFA47C"/>
<path d="M193.116 126.57C193.78 132.688 181.025 132.919 174.82 132.745C168.616 132.572 150.493 130.148 150.493 130.148L150.32 123.396C150.32 123.396 182.727 120.885 184.488 120.856C186.248 120.827 192.481 120.366 193.116 126.57Z" fill="#CEE0FF"/>
<path d="M148.774 131.018L154.863 131.02L154.866 122.622L148.777 122.62L148.774 131.018Z" fill="#CEE0FF"/>
<path d="M169.094 70.0821L165.451 74.9609L172.18 79.9854L175.823 75.1066L169.094 70.0821Z" fill="#CEE0FF"/>
<path d="M199.118 49.8373C200.417 51.3191 201.959 52.5683 203.678 53.5311C204.747 53.8779 205.878 53.9959 206.996 53.8774V55.6377C205.764 55.7091 204.531 55.5019 203.389 55.0317C201.115 53.8481 199.08 52.2532 197.387 50.3279C196.059 48.7985 199.118 49.8373 199.118 49.8373Z" fill="#CEE0FF"/>
<path d="M179.957 48.5964C179.957 48.5964 181.284 38.8137 190.288 36.2165C192.746 35.4978 195.364 35.5374 197.799 36.3303C200.235 37.1232 202.374 38.6324 203.938 40.6606C205.4 42.9224 206.454 45.4227 207.054 48.0481C203.501 49.087 199.887 49.9062 196.233 50.501C193.347 50.7319 183.045 50.6453 179.957 48.5964Z" fill="#CEE0FF"/>
<path d="M176.753 50.1257C176.753 50.7317 179.812 51.886 194.529 50.8472C206.996 49.9814 208.034 48.9425 208.034 48.4808C208.034 48.0191 207.717 47.846 207.053 48.048C201.022 49.4234 194.857 50.1203 188.671 50.1257C181.37 49.7506 180.014 47.5574 180.014 47.5574C180.014 47.5574 176.551 49.058 176.753 50.1257Z" fill="#B5CCF9"/>
<path d="M200.33 41.613C199.673 40.1037 198.646 38.7839 197.345 37.7753C196.044 36.7667 194.51 36.1017 192.885 35.8415C194.996 35.6111 197.131 35.9437 199.072 36.8053C201.013 37.6669 202.692 39.027 203.937 40.7473C205.399 43.0092 206.454 45.5094 207.054 48.1349C207.054 48.1349 204.688 49.7509 195.165 50.2992C196.079 50.0772 196.94 49.6747 197.698 49.1155C198.455 48.5562 199.093 47.8514 199.574 47.0423C200.055 46.2332 200.37 45.3363 200.5 44.404C200.629 43.4716 200.572 42.5228 200.33 41.613Z" fill="#B5CCF9"/>
<path d="M203.562 49.4042C203.562 49.4042 203.101 43.8923 198.022 43.8923C192.943 43.8923 190.461 50.1544 190.461 50.1544C194.842 50.4323 199.241 50.1804 203.562 49.4042Z" fill="#B5CCF9"/>
<path d="M183.275 49.289C183.929 46.1367 185.099 43.1141 186.738 40.3431C188.787 37.7748 189.942 37.6882 189.942 37.6882C188.634 38.8307 187.505 40.1635 186.594 41.6417C185.544 44.1878 184.695 46.8122 184.055 49.491L183.275 49.289Z" fill="#B5CCF9"/>
<path d="M183.274 49.2889C183.274 49.2889 179.754 48.4809 180.1 47.5575C180.65 45.2245 181.713 43.0432 183.21 41.1715C184.707 39.2999 186.602 37.7847 188.757 36.7358L189.912 37.6881C188.217 38.7334 186.817 40.1934 185.843 41.9302C184.667 44.2598 183.804 46.7339 183.274 49.2889Z" fill="#E0F2FF"/>
<path d="M191.961 50.1256L202.58 49.0578C202.58 49.0578 202.378 43.2863 197.011 44.4695C195.561 44.9034 194.221 45.6431 193.081 46.6387C191.941 47.6343 191.027 48.8626 190.402 50.241L191.961 50.1256Z" fill="#E0F2FF"/>
<path d="M202.581 49.0581C202.581 49.0581 201.801 44.7583 198.425 44.7583C195.049 44.7583 191.961 50.2701 191.961 50.2701C195.524 50.1 199.071 49.6951 202.581 49.0581Z" fill="#B5CCF9"/>
</svg>
