<svg width="392" height="468" viewBox="0 0 392 468" fill="none" xmlns="http://www.w3.org/2000/svg">
<g filter="url(#filter0_d)">
<g filter="url(#filter1_d)">
<path d="M4 7.10205C4 5.38884 5.39047 4 7.10569 4H382.894C384.61 4 386 5.38883 386 7.10204V456.898C386 458.611 384.61 460 382.894 460H7.10569C5.39046 460 4 458.611 4 456.898V7.10205Z" fill="#171932"/>
</g>
<path d="M119.191 62.9053L122.489 63.9599C121.984 65.8143 121.141 67.1935 119.961 68.0975C118.789 68.9937 117.299 69.4419 115.49 69.4419C113.253 69.4419 111.414 68.6731 109.974 67.1355C108.534 65.5902 107.813 63.4809 107.813 60.8075C107.813 57.9797 108.538 55.7853 109.986 54.2246C111.434 52.6561 113.338 51.8719 115.697 51.8719C117.758 51.8719 119.432 52.4861 120.72 53.7146C121.486 54.4409 122.06 55.484 122.443 56.8439L119.076 57.6551C118.877 56.7743 118.459 56.0789 117.823 55.569C117.195 55.0591 116.429 54.8041 115.525 54.8041C114.276 54.8041 113.261 55.2561 112.479 56.1601C111.706 57.0641 111.319 58.5282 111.319 60.5526C111.319 62.7005 111.702 64.2304 112.468 65.1421C113.234 66.0538 114.23 66.5097 115.456 66.5097C116.36 66.5097 117.138 66.2199 117.789 65.6405C118.44 65.061 118.908 64.1492 119.191 62.9053Z" fill="#D1FF4E"/>
<path d="M132.465 65.2348L135.683 65.7795C135.269 66.9694 134.614 67.8773 133.718 68.5031C132.829 69.1212 131.714 69.4303 130.373 69.4303C128.251 69.4303 126.68 68.731 125.661 67.3326C124.857 66.2122 124.455 64.7983 124.455 63.0907C124.455 61.0509 124.983 59.4554 126.041 58.3042C127.098 57.1452 128.435 56.5657 130.051 56.5657C131.867 56.5657 133.3 57.1722 134.35 58.3853C135.399 59.5906 135.901 61.4411 135.855 63.9368H127.764C127.787 64.9026 128.048 65.6559 128.546 66.1968C129.044 66.7299 129.664 66.9965 130.408 66.9965C130.913 66.9965 131.339 66.8574 131.683 66.5792C132.028 66.3011 132.289 65.8529 132.465 65.2348ZM132.649 61.9433C132.626 61.0007 132.384 60.286 131.925 59.7992C131.465 59.3047 130.906 59.0575 130.247 59.0575C129.542 59.0575 128.96 59.3163 128.5 59.834C128.04 60.3517 127.814 61.0548 127.822 61.9433H132.649Z" fill="#D1FF4E"/>
<path d="M138.372 56.8439H141.601V61.3523H146.221V56.8439H149.462V69.1521H146.221V63.9831H141.601V69.1521H138.372V56.8439Z" fill="#D1FF4E"/>
<path d="M151.278 56.8439H162.322V59.4747H158.415V69.1521H155.185V59.4747H151.278V56.8439Z" fill="#D1FF4E"/>
<path d="M174.723 56.8439V69.1521H171.516V64.0411H171.217C170.52 64.0411 170.007 64.1338 169.677 64.3192C169.356 64.4969 168.996 64.8794 168.597 65.4666L168.402 65.71L166.276 69.1521H162.518L164.828 65.5825C165.487 64.5626 166.084 63.9754 166.62 63.8209C165.716 63.7668 164.981 63.423 164.414 62.7894C163.855 62.1481 163.575 61.3329 163.575 60.344C163.575 59.5481 163.759 58.8682 164.127 58.3042C164.502 57.7401 164.996 57.3577 165.609 57.1568C166.23 56.9482 167.149 56.8439 168.367 56.8439H174.723ZM171.516 58.9416H169.206C168.356 58.9416 167.758 59.0652 167.413 59.3125C167.069 59.552 166.896 59.9538 166.896 60.5178C166.896 61.0818 167.092 61.4875 167.482 61.7347C167.873 61.982 168.513 62.1056 169.402 62.1056H171.516V58.9416Z" fill="#D1FF4E"/>
<path d="M187.169 51.7676H189.364C189.295 52.7488 189.038 53.4944 188.594 54.0044C188.157 54.5066 187.073 54.7577 185.342 54.7577C185.135 54.7577 184.928 54.7539 184.721 54.7461H184.307C183.281 54.7461 182.446 54.862 181.802 55.0938C181.158 55.3179 180.63 55.7583 180.216 56.415C179.81 57.0718 179.599 58.1303 179.584 59.5906C180.059 58.6866 180.672 58.0106 181.423 57.5624C182.181 57.1143 183.082 56.8902 184.123 56.8902C185.725 56.8902 187.081 57.5199 188.192 58.7793C189.303 60.031 189.858 61.4836 189.858 63.1371C189.858 64.8601 189.272 66.3397 188.1 67.5759C186.935 68.8122 185.411 69.4303 183.526 69.4303C182.231 69.4303 181.093 69.1174 180.113 68.4915C179.132 67.8657 178.431 67.0119 178.009 65.9302C177.588 64.8408 177.377 63.0405 177.377 60.5294C177.377 57.5779 177.914 55.457 178.986 54.1666C180.067 52.8763 181.948 52.2312 184.629 52.2312H186.261C186.713 52.2312 187.016 52.0766 187.169 51.7676ZM180.664 63.0907C180.664 64.2111 180.94 65.0996 181.492 65.7564C182.051 66.4054 182.733 66.7299 183.537 66.7299C184.403 66.7299 185.112 66.3938 185.663 65.7216C186.223 65.0417 186.502 64.1686 186.502 63.1023C186.502 62.0129 186.219 61.1359 185.652 60.4714C185.093 59.7992 184.399 59.4631 183.572 59.4631C182.767 59.4631 182.082 59.7915 181.515 60.4483C180.948 61.105 180.664 61.9858 180.664 63.0907Z" fill="#D1FF4E"/>
<path d="M192.467 56.8439H195.478V58.6519C195.869 58.0337 196.397 57.5315 197.064 57.1452C197.731 56.7589 198.47 56.5657 199.282 56.5657C200.699 56.5657 201.902 57.1259 202.891 58.2462C203.879 59.3666 204.373 60.9273 204.373 62.9285C204.373 64.9837 203.875 66.5831 202.879 67.7266C201.883 68.8624 200.676 69.4303 199.259 69.4303C198.585 69.4303 197.972 69.2951 197.42 69.0246C196.876 68.7542 196.302 68.2906 195.696 67.6339V73.8344H192.467V56.8439ZM195.662 62.7894C195.662 64.1724 195.934 65.1962 196.478 65.8607C197.022 66.5174 197.685 66.8458 198.466 66.8458C199.217 66.8458 199.841 66.5445 200.339 65.9418C200.837 65.3314 201.086 64.3347 201.086 62.9516C201.086 61.6613 200.83 60.7032 200.316 60.0774C199.803 59.4516 199.167 59.1386 198.409 59.1386C197.619 59.1386 196.964 59.4477 196.443 60.0658C195.922 60.6762 195.662 61.5841 195.662 62.7894Z" fill="#D1FF4E"/>
<path d="M207.017 56.8439H210.246V61.9549H213.487C214.759 61.9549 215.735 62.0476 216.417 62.2331C217.099 62.4185 217.666 62.8203 218.118 63.4384C218.57 64.0488 218.796 64.7596 218.796 65.5709C218.796 66.7608 218.39 67.6571 217.578 68.2597C216.774 68.8547 215.563 69.1521 213.946 69.1521H207.017V56.8439ZM210.246 67.0892H213.257C214.199 67.0892 214.801 66.9346 215.061 66.6256C215.329 66.3165 215.463 65.9495 215.463 65.5246C215.463 64.9296 215.234 64.5201 214.774 64.296C214.322 64.072 213.514 63.9599 212.349 63.9599H210.246V67.0892Z" fill="#D1FF4E"/>
<path d="M238.196 66.1272V69.1521H226.875C226.998 68.0086 227.366 66.9269 227.979 65.907C228.592 64.8794 229.802 63.5195 231.61 61.8274C233.066 60.4599 233.959 59.5327 234.288 59.0459C234.733 58.3737 234.955 57.7092 234.955 57.0525C234.955 56.3262 234.759 55.7699 234.369 55.3836C233.986 54.9895 233.453 54.7925 232.771 54.7925C232.097 54.7925 231.561 54.9972 231.162 55.4067C230.764 55.8162 230.534 56.4962 230.473 57.4465L227.255 57.122C227.446 55.3295 228.048 54.043 229.059 53.2627C230.07 52.4823 231.335 52.0921 232.852 52.0921C234.514 52.0921 235.82 52.5441 236.771 53.4481C237.721 54.3521 238.196 55.4763 238.196 56.8207C238.196 57.5856 238.058 58.3158 237.782 59.0111C237.514 59.6988 237.085 60.4212 236.495 61.1784C236.104 61.6806 235.399 62.4031 234.38 63.3457C233.361 64.2883 232.714 64.9142 232.438 65.2232C232.17 65.5323 231.951 65.8336 231.783 66.1272H238.196Z" fill="#D1FF4E"/>
<path d="M245.85 52.0921C247.482 52.0921 248.757 52.6793 249.677 53.8537C250.772 55.2445 251.32 57.5508 251.32 60.7728C251.32 63.987 250.768 66.2972 249.665 67.7034C248.753 68.8624 247.482 69.4419 245.85 69.4419C244.21 69.4419 242.888 68.8083 241.885 67.5412C240.881 66.2663 240.379 63.9986 240.379 60.738C240.379 57.5393 240.931 55.2368 242.034 53.8305C242.946 52.6716 244.218 52.0921 245.85 52.0921ZM245.85 54.7925C245.459 54.7925 245.11 54.92 244.804 55.175C244.497 55.4222 244.26 55.8703 244.091 56.5194C243.869 57.3615 243.758 58.7793 243.758 60.7728C243.758 62.7662 243.858 64.1377 244.057 64.8871C244.256 65.6289 244.505 66.1234 244.804 66.3706C245.11 66.6179 245.459 66.7415 245.85 66.7415C246.24 66.7415 246.589 66.6179 246.895 66.3706C247.202 66.1156 247.439 65.6636 247.608 65.0146C247.83 64.1802 247.941 62.7662 247.941 60.7728C247.941 58.7793 247.842 57.4118 247.642 56.67C247.443 55.9206 247.19 55.4222 246.884 55.175C246.585 54.92 246.24 54.7925 245.85 54.7925Z" fill="#D1FF4E"/>
<path d="M261.755 69.1521H258.526V56.8786C257.346 57.9912 255.955 58.8141 254.354 59.3472V56.3919C255.197 56.1137 256.112 55.5883 257.101 54.8157C258.089 54.0353 258.767 53.1274 259.135 52.0921H261.755V69.1521Z" fill="#D1FF4E"/>
<path d="M266.662 65.2232L269.788 64.8755C269.865 65.5168 270.064 65.992 270.386 66.3011C270.708 66.6101 271.133 66.7647 271.662 66.7647C272.328 66.7647 272.895 66.4556 273.363 65.8375C273.83 65.2194 274.129 63.9368 274.259 61.9897C273.447 62.9401 272.432 63.4152 271.213 63.4152C269.888 63.4152 268.743 62.9014 267.777 61.8738C266.82 60.8385 266.341 59.494 266.341 57.8406C266.341 56.1176 266.846 54.7307 267.858 53.6799C268.877 52.6214 270.171 52.0921 271.742 52.0921C273.451 52.0921 274.853 52.7604 275.948 54.0971C277.044 55.4261 277.592 57.6165 277.592 60.6685C277.592 63.7745 277.021 66.0152 275.879 67.3905C274.738 68.7658 273.251 69.4535 271.42 69.4535C270.103 69.4535 269.038 69.1019 268.225 68.3988C267.413 67.688 266.892 66.6294 266.662 65.2232ZM273.972 58.1071C273.972 57.0563 273.73 56.2412 273.248 55.6617C272.773 55.0822 272.221 54.7925 271.593 54.7925C270.995 54.7925 270.497 55.032 270.099 55.5111C269.708 55.9824 269.513 56.7589 269.513 57.8406C269.513 58.9377 269.727 59.7452 270.156 60.2628C270.585 60.7728 271.122 61.0278 271.765 61.0278C272.386 61.0278 272.907 60.7805 273.328 60.286C273.757 59.7915 273.972 59.0652 273.972 58.1071Z" fill="#D1FF4E"/>
<path d="M65.8464 66.7783H63.626L62.7434 64.4627H58.7027L57.8683 66.7783H55.7031L59.6404 56.584H61.7987L65.8464 66.7783ZM62.0883 62.7451L60.6955 58.9622L59.3301 62.7451H62.0883Z" fill="#949398"/>
<path d="M66.9428 59.3933H71.1835C72.0523 59.3933 72.7028 59.5533 73.1349 59.8731C73.567 60.193 73.7831 60.6751 73.7831 61.3195C73.7831 61.7321 73.6636 62.0914 73.4245 62.3974C73.1901 62.7033 72.8936 62.9073 72.535 63.0093C73.0407 63.1345 73.4176 63.3686 73.6659 63.7117C73.9141 64.0547 74.0382 64.4302 74.0382 64.8382C74.0382 65.413 73.8291 65.8812 73.4107 66.2428C72.9924 66.5998 72.3741 66.7783 71.5558 66.7783H66.9428V59.3933ZM68.8942 62.46H70.1423C70.7445 62.46 71.1789 62.3835 71.4455 62.2305C71.7167 62.0775 71.8523 61.8364 71.8523 61.5073C71.8523 61.1967 71.7259 60.9765 71.4731 60.8467C71.2249 60.7122 70.7813 60.645 70.1423 60.645H68.8942V62.46ZM68.8942 65.5266H70.425C70.9766 65.5266 71.3789 65.4594 71.6317 65.3249C71.8845 65.1905 72.0109 64.9494 72.0109 64.6017C72.0109 64.2401 71.8661 63.9921 71.5765 63.8577C71.2869 63.7186 70.7238 63.6491 69.8871 63.6491H68.8942V65.5266Z" fill="#949398"/>
<path d="M75.5345 59.3933H80.4786V60.9718H77.4722V66.7783H75.5345V59.3933Z" fill="#949398"/>
<path d="M305.805 61.7437C305.805 60.7053 305.959 59.8338 306.267 59.1291C306.497 58.6099 306.809 58.144 307.204 57.7314C307.604 57.3188 308.041 57.0128 308.515 56.8135C309.144 56.5446 309.871 56.4102 310.694 56.4102C312.183 56.4102 313.374 56.8761 314.265 57.8079C315.162 58.7397 315.61 60.0354 315.61 61.6951C315.61 63.3408 315.166 64.6296 314.279 65.5614C313.392 66.4886 312.206 66.9522 310.721 66.9522C309.218 66.9522 308.023 66.4909 307.136 65.5683C306.248 64.6412 305.805 63.3663 305.805 61.7437ZM307.908 61.6742C307.908 62.8285 308.172 63.7047 308.701 64.3027C309.229 64.8961 309.901 65.1928 310.714 65.1928C311.528 65.1928 312.195 64.8985 312.714 64.3097C313.238 63.7163 313.5 62.8285 313.5 61.6464C313.5 60.4781 313.245 59.6066 312.735 59.0317C312.229 58.4569 311.556 58.1695 310.714 58.1695C309.873 58.1695 309.195 58.4615 308.68 59.0457C308.165 59.6251 307.908 60.5013 307.908 61.6742Z" fill="#949398"/>
<path d="M317.12 59.3933H319.051V62.4113C319.373 62.3742 319.6 62.2745 319.734 62.1123C319.867 61.95 320.028 61.5954 320.216 61.0484C320.464 60.3205 320.736 59.8546 321.03 59.6506C321.324 59.4467 321.71 59.3447 322.188 59.3447C322.335 59.3447 322.591 59.3563 322.954 59.3794L322.961 60.6728C322.45 60.6728 322.124 60.7215 321.981 60.8189C321.839 60.9209 321.685 61.2245 321.519 61.7298C321.294 62.4113 320.97 62.8309 320.547 62.9885C321.159 63.16 321.676 63.6954 322.099 64.5948C322.122 64.6412 322.147 64.6898 322.175 64.7408L323.257 66.7783H321.175L320.209 64.6435C320.012 64.2123 319.839 63.9365 319.692 63.816C319.55 63.6908 319.336 63.6282 319.051 63.6282V66.7783H317.12V59.3933Z" fill="#949398"/>
<path d="M323.402 59.3933H330.029V60.9719H327.684V66.7783H325.746V60.9719H323.402V59.3933Z" fill="#949398"/>
<path fill-rule="evenodd" clip-rule="evenodd" d="M341.102 67.459C340.729 66.9221 340.858 66.1821 341.391 65.8062L347.859 61.2401L341.391 56.674C340.858 56.2982 340.729 55.5582 341.102 55.0212C341.474 54.4842 342.208 54.3537 342.74 54.7295L351.963 61.2401L342.74 67.7507C342.208 68.1266 341.474 67.996 341.102 67.459Z" fill="white"/>
<path fill-rule="evenodd" clip-rule="evenodd" d="M48.0372 55.021C48.4099 55.5579 48.2804 56.2979 47.7479 56.6738L41.2797 61.2399L47.7479 65.806C48.2804 66.1818 48.4099 66.9218 48.0372 67.4588C47.6644 67.9957 46.9307 68.1263 46.3982 67.7505L37.1754 61.2399L46.3982 54.7293C46.9307 54.3534 47.6644 54.484 48.0372 55.021Z" fill="white"/>
<path fill-rule="evenodd" clip-rule="evenodd" d="M39.2275 108.316C39.2275 108.097 39.4032 107.92 39.6198 107.92L354.225 107.92C354.442 107.92 354.618 108.097 354.618 108.316C354.618 108.534 354.442 108.711 354.225 108.711L39.6198 108.711C39.4032 108.711 39.2275 108.534 39.2275 108.316Z" fill="white"/>
<path d="M61.9204 143.524H59.114V138.211H56.9764V143.524H54.1699V136.146H61.9204V143.524Z" fill="white"/>
<path d="M71.8913 143.524H69.078V140.736H66.5266V143.524H63.7133V136.146H66.5266V138.67H69.078V136.146H71.8913V143.524Z" fill="white"/>
<path d="M105.224 139.595C105.781 139.651 106.222 139.836 106.548 140.151C106.879 140.467 107.045 140.889 107.045 141.417C107.045 142.122 106.815 142.65 106.355 143.002C105.896 143.35 105.07 143.524 103.88 143.524H99.7012V136.146H104.218C105.036 136.146 105.659 136.304 106.086 136.619C106.519 136.934 106.735 137.375 106.735 137.94C106.735 138.339 106.594 138.686 106.314 138.983C106.034 139.275 105.67 139.47 105.224 139.567V139.595ZM102.508 138.955H103.218C103.687 138.955 103.921 138.74 103.921 138.309C103.921 137.961 103.673 137.787 103.176 137.787H102.508V138.955ZM102.508 141.786H103.432C103.661 141.786 103.848 141.732 103.99 141.626C104.133 141.519 104.204 141.364 104.204 141.16C104.204 140.715 103.946 140.492 103.432 140.492H102.508V141.786Z" fill="white"/>
<path d="M114.561 138.211H112.527V143.524H109.713V138.211H107.679V136.146H114.561V138.211Z" fill="white"/>
<path d="M149.882 140.638L152.551 140.944C152.404 141.505 152.162 141.992 151.827 142.404C151.491 142.812 151.061 143.13 150.537 143.357C150.018 143.584 149.356 143.698 148.551 143.698C147.774 143.698 147.126 143.626 146.607 143.482C146.092 143.334 145.648 143.098 145.276 142.773C144.904 142.444 144.612 142.059 144.4 141.619C144.189 141.178 144.083 140.594 144.083 139.866C144.083 139.106 144.212 138.473 144.469 137.968C144.658 137.597 144.915 137.266 145.241 136.974C145.568 136.677 145.903 136.457 146.248 136.313C146.795 136.086 147.496 135.972 148.351 135.972C149.547 135.972 150.457 136.188 151.082 136.619C151.712 137.05 152.153 137.68 152.406 138.51L149.765 138.865C149.682 138.55 149.53 138.313 149.31 138.156C149.094 137.993 148.802 137.912 148.434 137.912C147.97 137.912 147.593 138.081 147.303 138.42C147.018 138.754 146.876 139.261 146.876 139.943C146.876 140.55 147.018 141.011 147.303 141.327C147.588 141.642 147.951 141.799 148.393 141.799C148.76 141.799 149.068 141.704 149.317 141.514C149.57 141.324 149.758 141.032 149.882 140.638Z" fill="white"/>
<path d="M153.854 146.333V136.139H156.481V137.231C156.844 136.772 157.178 136.461 157.481 136.299C157.89 136.081 158.343 135.972 158.839 135.972C159.819 135.972 160.575 136.35 161.108 137.106C161.646 137.861 161.915 138.795 161.915 139.908C161.915 141.137 161.623 142.075 161.039 142.724C160.455 143.369 159.717 143.691 158.826 143.691C158.393 143.691 157.998 143.617 157.64 143.468C157.286 143.32 156.968 143.1 156.688 142.808V146.333H153.854ZM156.667 139.852C156.667 140.437 156.789 140.87 157.033 141.153C157.276 141.436 157.584 141.577 157.957 141.577C158.283 141.577 158.557 141.443 158.777 141.174C158.998 140.9 159.108 140.439 159.108 139.79C159.108 139.192 158.993 138.754 158.763 138.476C158.534 138.193 158.253 138.051 157.922 138.051C157.564 138.051 157.265 138.193 157.026 138.476C156.787 138.758 156.667 139.217 156.667 139.852Z" fill="white"/>
<path d="M195.267 143.524H192.454V140.805C191.746 141.232 190.98 141.445 190.158 141.445C188.397 141.445 187.517 140.499 187.517 138.608V136.146H190.323V138.17C190.323 138.503 190.399 138.765 190.551 138.955C190.702 139.145 190.914 139.24 191.185 139.24C191.709 139.24 192.132 139.025 192.454 138.594V136.146H195.267V143.524Z" fill="white"/>
<path d="M203.094 138.211H201.059V143.524H198.246V138.211H196.212V136.146H203.094V138.211Z" fill="white"/>
<path d="M239.229 143.524H236.423V138.211H234.285V143.524H231.479V136.146H239.229V143.524Z" fill="white"/>
<path d="M247.097 138.211H245.063V143.524H242.249V138.211H240.215V136.146H247.097V138.211Z" fill="white"/>
<path d="M279.333 140.638L282.002 140.944C281.855 141.505 281.613 141.992 281.278 142.404C280.942 142.812 280.512 143.13 279.988 143.357C279.469 143.584 278.807 143.698 278.002 143.698C277.226 143.698 276.577 143.626 276.058 143.482C275.543 143.334 275.099 143.097 274.727 142.773C274.355 142.444 274.063 142.059 273.851 141.619C273.64 141.178 273.534 140.594 273.534 139.866C273.534 139.106 273.663 138.473 273.92 137.968C274.109 137.597 274.366 137.265 274.693 136.973C275.019 136.677 275.355 136.456 275.699 136.313C276.246 136.086 276.947 135.972 277.802 135.972C278.998 135.972 279.908 136.188 280.533 136.619C281.163 137.05 281.604 137.68 281.857 138.51L279.216 138.865C279.133 138.55 278.982 138.313 278.761 138.156C278.545 137.993 278.253 137.912 277.885 137.912C277.421 137.912 277.044 138.081 276.754 138.42C276.469 138.754 276.327 139.261 276.327 139.943C276.327 140.55 276.469 141.011 276.754 141.326C277.039 141.642 277.403 141.799 277.844 141.799C278.212 141.799 278.52 141.704 278.768 141.514C279.021 141.324 279.209 141.032 279.333 140.638Z" fill="white"/>
<path d="M285.746 136.361C286.082 136.106 286.544 135.979 287.132 135.979C288.507 135.979 289.552 136.345 290.27 137.078C290.991 137.806 291.352 138.714 291.352 139.804C291.352 140.884 290.994 141.804 290.276 142.564C289.564 143.32 288.516 143.698 287.132 143.698C285.753 143.698 284.712 143.318 284.008 142.557C283.305 141.792 282.953 140.548 282.953 138.823C282.953 137.228 283.257 135.94 283.864 134.957C284.47 133.974 285.344 133.464 286.484 133.427L287.332 133.399C288.091 133.367 288.509 133.267 288.587 133.1H290.814C290.814 134.449 290.063 135.151 288.559 135.207C287.544 135.244 286.854 135.346 286.491 135.513C286.128 135.675 285.879 135.958 285.746 136.361ZM287.146 141.758C287.596 141.758 287.941 141.591 288.18 141.257C288.424 140.923 288.546 140.446 288.546 139.824C288.546 139.208 288.422 138.735 288.173 138.406C287.925 138.077 287.592 137.912 287.173 137.912C286.709 137.912 286.357 138.093 286.118 138.455C285.879 138.812 285.76 139.277 285.76 139.852C285.76 140.45 285.877 140.919 286.112 141.257C286.351 141.591 286.695 141.758 287.146 141.758Z" fill="white"/>
<path d="M324.115 139.595C324.671 139.651 325.113 139.836 325.439 140.151C325.77 140.467 325.935 140.889 325.935 141.417C325.935 142.122 325.706 142.65 325.246 143.002C324.786 143.35 323.961 143.524 322.77 143.524H318.592V136.146H323.108C323.927 136.146 324.549 136.304 324.977 136.619C325.409 136.934 325.625 137.375 325.625 137.94C325.625 138.339 325.485 138.686 325.205 138.983C324.924 139.275 324.561 139.47 324.115 139.567V139.595ZM321.398 138.955H322.108C322.577 138.955 322.812 138.74 322.812 138.309C322.812 137.961 322.564 137.787 322.067 137.787H321.398V138.955ZM321.398 141.786H322.322C322.552 141.786 322.738 141.732 322.881 141.626C323.023 141.519 323.095 141.364 323.095 141.16C323.095 140.715 322.837 140.492 322.322 140.492H321.398V141.786Z" fill="white"/>
<path d="M332.741 140.638L335.41 140.944C335.263 141.505 335.021 141.992 334.686 142.404C334.35 142.812 333.92 143.13 333.396 143.357C332.877 143.584 332.215 143.698 331.411 143.698C330.634 143.698 329.985 143.626 329.466 143.482C328.951 143.334 328.508 143.098 328.135 142.773C327.763 142.444 327.471 142.059 327.259 141.619C327.048 141.178 326.942 140.594 326.942 139.866C326.942 139.106 327.071 138.473 327.328 137.968C327.517 137.597 327.774 137.266 328.101 136.974C328.427 136.677 328.763 136.457 329.107 136.313C329.654 136.086 330.355 135.972 331.211 135.972C332.406 135.972 333.316 136.188 333.941 136.619C334.571 137.05 335.012 137.68 335.265 138.51L332.624 138.865C332.541 138.55 332.39 138.313 332.169 138.156C331.953 137.993 331.661 137.912 331.293 137.912C330.829 137.912 330.452 138.081 330.162 138.42C329.877 138.754 329.735 139.261 329.735 139.943C329.735 140.55 329.877 141.011 330.162 141.327C330.447 141.642 330.811 141.799 331.252 141.799C331.62 141.799 331.928 141.704 332.176 141.514C332.429 141.324 332.617 141.032 332.741 140.638Z" fill="white"/>
<path d="M234.351 271.696H233.109V263.72C232.811 264.008 232.417 264.295 231.93 264.583C231.448 264.87 231.013 265.086 230.627 265.229V264.019C231.321 263.69 231.928 263.292 232.447 262.823C232.967 262.355 233.335 261.901 233.551 261.46H234.351V271.696Z" fill="white"/>
<path d="M237.543 269.005L238.784 268.838C238.927 269.548 239.168 270.06 239.508 270.375C239.853 270.686 240.271 270.841 240.763 270.841C241.347 270.841 241.839 270.637 242.239 270.229C242.643 269.821 242.846 269.316 242.846 268.713C242.846 268.138 242.66 267.666 242.287 267.295C241.915 266.919 241.441 266.731 240.867 266.731C240.632 266.731 240.34 266.778 239.991 266.871L240.129 265.772C240.212 265.781 240.278 265.786 240.329 265.786C240.858 265.786 241.333 265.647 241.756 265.368C242.179 265.09 242.391 264.662 242.391 264.082C242.391 263.623 242.237 263.243 241.929 262.942C241.621 262.64 241.223 262.49 240.736 262.49C240.253 262.49 239.851 262.643 239.529 262.949C239.207 263.255 239 263.713 238.908 264.325L237.667 264.103C237.819 263.264 238.164 262.615 238.702 262.156C239.239 261.692 239.908 261.46 240.708 261.46C241.26 261.46 241.768 261.581 242.232 261.822C242.696 262.058 243.05 262.383 243.294 262.796C243.542 263.208 243.666 263.646 243.666 264.11C243.666 264.55 243.549 264.951 243.315 265.313C243.08 265.674 242.733 265.962 242.273 266.175C242.871 266.314 243.335 266.604 243.666 267.044C243.997 267.48 244.163 268.027 244.163 268.685C244.163 269.576 243.841 270.331 243.197 270.952C242.554 271.569 241.74 271.877 240.756 271.877C239.869 271.877 239.131 271.611 238.543 271.078C237.959 270.544 237.626 269.854 237.543 269.005Z" fill="white"/>
<path d="M102.545 271.696H101.304V263.72C101.005 264.008 100.612 264.295 100.125 264.583C99.6419 264.87 99.2074 265.086 98.8213 265.229V264.019C99.5154 263.69 100.122 263.292 100.642 262.823C101.161 262.355 101.529 261.901 101.745 261.46H102.545V271.696Z" fill="white"/>
<path d="M105.731 266.669C105.731 265.464 105.852 264.495 106.096 263.762C106.344 263.025 106.71 262.457 107.192 262.058C107.68 261.66 108.291 261.46 109.027 261.46C109.569 261.46 110.045 261.572 110.454 261.794C110.863 262.012 111.201 262.33 111.468 262.747C111.734 263.159 111.943 263.665 112.095 264.263C112.247 264.856 112.323 265.658 112.323 266.669C112.323 267.865 112.201 268.832 111.957 269.569C111.714 270.301 111.348 270.869 110.861 271.272C110.378 271.671 109.767 271.87 109.027 271.87C108.052 271.87 107.287 271.518 106.73 270.813C106.064 269.965 105.731 268.583 105.731 266.669ZM107.006 266.669C107.006 268.342 107.199 269.457 107.585 270.014C107.976 270.565 108.457 270.841 109.027 270.841C109.597 270.841 110.075 270.563 110.461 270.007C110.852 269.45 111.047 268.338 111.047 266.669C111.047 264.991 110.852 263.876 110.461 263.324C110.075 262.772 109.592 262.497 109.013 262.497C108.443 262.497 107.988 262.74 107.648 263.227C107.22 263.848 107.006 264.995 107.006 266.669Z" fill="white"/>
<path d="M277.615 221.696V220.493H284.159V221.466C283.515 222.157 282.876 223.075 282.242 224.22C281.612 225.365 281.125 226.543 280.78 227.752C280.532 228.605 280.373 229.54 280.304 230.555H279.029C279.043 229.753 279.199 228.784 279.498 227.648C279.797 226.512 280.224 225.418 280.78 224.366C281.341 223.309 281.936 222.419 282.566 221.696H277.615Z" fill="white"/>
<path d="M240.039 222.857L238.804 222.954C238.694 222.463 238.538 222.106 238.335 221.883C238 221.526 237.586 221.348 237.094 221.348C236.699 221.348 236.352 221.459 236.053 221.682C235.662 221.969 235.354 222.389 235.129 222.94C234.904 223.492 234.786 224.278 234.777 225.298C235.076 224.839 235.442 224.498 235.874 224.276C236.306 224.053 236.759 223.942 237.232 223.942C238.06 223.942 238.763 224.25 239.342 224.867C239.926 225.479 240.218 226.271 240.218 227.245C240.218 227.885 240.08 228.48 239.804 229.032C239.533 229.579 239.158 229.999 238.68 230.291C238.202 230.583 237.66 230.729 237.053 230.729C236.018 230.729 235.175 230.346 234.522 229.581C233.869 228.812 233.543 227.546 233.543 225.785C233.543 223.814 233.904 222.382 234.626 221.487C235.255 220.708 236.103 220.319 237.17 220.319C237.965 220.319 238.616 220.544 239.121 220.993C239.632 221.443 239.937 222.064 240.039 222.857ZM234.97 227.252C234.97 227.683 235.06 228.096 235.239 228.49C235.423 228.884 235.678 229.185 236.005 229.394C236.331 229.598 236.674 229.7 237.032 229.7C237.556 229.7 238.007 229.486 238.384 229.06C238.761 228.633 238.949 228.054 238.949 227.321C238.949 226.617 238.763 226.063 238.39 225.659C238.018 225.251 237.549 225.047 236.984 225.047C236.423 225.047 235.947 225.251 235.556 225.659C235.166 226.063 234.97 226.594 234.97 227.252Z" fill="white"/>
<path d="M189.662 227.884L190.965 227.773C191.062 228.413 191.285 228.895 191.634 229.22C191.988 229.539 192.413 229.699 192.91 229.699C193.507 229.699 194.013 229.472 194.427 229.018C194.841 228.564 195.047 227.961 195.047 227.21C195.047 226.496 194.848 225.933 194.448 225.52C194.052 225.108 193.533 224.901 192.889 224.901C192.489 224.901 192.128 224.994 191.807 225.179C191.485 225.36 191.232 225.597 191.048 225.889L189.883 225.736L190.862 220.5H195.889V221.696H191.855L191.31 224.435C191.917 224.009 192.554 223.796 193.22 223.796C194.103 223.796 194.848 224.104 195.454 224.72C196.061 225.337 196.365 226.13 196.365 227.099C196.365 228.021 196.098 228.819 195.565 229.491C194.916 230.316 194.032 230.729 192.91 230.729C191.99 230.729 191.239 230.469 190.655 229.95C190.076 229.431 189.745 228.742 189.662 227.884Z" fill="white"/>
<path d="M326.44 189.413H324.502V182.049C323.794 182.716 322.96 183.21 321.999 183.53V181.757C322.505 181.59 323.054 181.274 323.647 180.811C324.24 180.343 324.647 179.798 324.868 179.177H326.44V189.413Z" fill="white"/>
<path d="M64.3811 229.352V230.555H57.6993C57.6902 230.254 57.7384 229.964 57.8442 229.686C58.0142 229.227 58.2855 228.775 58.6578 228.33C59.0348 227.885 59.5772 227.37 60.2852 226.786C61.3838 225.877 62.1262 225.159 62.5124 224.63C62.8985 224.097 63.0916 223.594 63.0916 223.121C63.0916 222.625 62.9146 222.208 62.5607 221.87C62.2113 221.526 61.7539 221.355 61.1885 221.355C60.5909 221.355 60.1128 221.536 59.7542 221.897C59.3956 222.259 59.2141 222.76 59.2095 223.399L57.9338 223.267C58.0211 222.308 58.3498 221.577 58.9198 221.077C59.4899 220.572 60.2553 220.319 61.216 220.319C62.186 220.319 62.9537 220.59 63.5191 221.132C64.0846 221.675 64.3673 222.347 64.3673 223.149C64.3673 223.557 64.2845 223.958 64.119 224.352C63.9535 224.746 63.6777 225.161 63.2916 225.597C62.91 226.033 62.2733 226.631 61.3815 227.391C60.6368 228.021 60.1587 228.45 59.9473 228.677C59.7358 228.9 59.5611 229.125 59.4232 229.352H64.3811Z" fill="white"/>
<path d="M101.738 227.85L103.614 227.62C103.674 228.102 103.835 228.471 104.097 228.726C104.359 228.981 104.676 229.108 105.048 229.108C105.448 229.108 105.784 228.955 106.055 228.65C106.331 228.344 106.469 227.931 106.469 227.412C106.469 226.92 106.338 226.531 106.076 226.244C105.814 225.956 105.494 225.812 105.117 225.812C104.869 225.812 104.572 225.861 104.228 225.958L104.441 224.366C104.965 224.38 105.365 224.266 105.641 224.025C105.917 223.78 106.055 223.455 106.055 223.052C106.055 222.709 105.954 222.435 105.751 222.231C105.549 222.027 105.28 221.925 104.945 221.925C104.614 221.925 104.331 222.041 104.097 222.273C103.862 222.505 103.72 222.843 103.669 223.288L101.883 222.982C102.007 222.366 102.193 221.874 102.442 221.508C102.694 221.137 103.044 220.847 103.49 220.639C103.94 220.425 104.444 220.319 105 220.319C105.951 220.319 106.715 220.625 107.289 221.237C107.763 221.737 107.999 222.303 107.999 222.933C107.999 223.828 107.514 224.542 106.544 225.075C107.124 225.2 107.586 225.481 107.93 225.917C108.28 226.352 108.454 226.879 108.454 227.495C108.454 228.39 108.13 229.153 107.482 229.783C106.834 230.413 106.027 230.729 105.062 230.729C104.147 230.729 103.389 230.464 102.786 229.936C102.184 229.403 101.835 228.707 101.738 227.85Z" fill="#D1FF4E"/>
<path d="M149.707 230.555V228.114H145.321V226.966L149.934 220.36H150.948V226.966H152.313V228.114H150.948V230.555H149.707ZM149.707 226.966V222.37L146.542 226.966H149.707Z" fill="white"/>
<path d="M273.617 186.722L274.858 186.555C275.001 187.264 275.242 187.776 275.582 188.092C275.927 188.402 276.346 188.557 276.837 188.557C277.421 188.557 277.913 188.353 278.313 187.946C278.718 187.538 278.92 187.032 278.92 186.43C278.92 185.855 278.734 185.382 278.361 185.011C277.989 184.636 277.515 184.448 276.941 184.448C276.706 184.448 276.414 184.494 276.065 184.587L276.203 183.488C276.286 183.497 276.352 183.502 276.403 183.502C276.932 183.502 277.407 183.363 277.83 183.085C278.253 182.807 278.465 182.378 278.465 181.798C278.465 181.339 278.311 180.959 278.003 180.658C277.695 180.357 277.297 180.206 276.81 180.206C276.327 180.206 275.925 180.359 275.603 180.665C275.281 180.971 275.074 181.43 274.982 182.042L273.741 181.819C273.893 180.98 274.238 180.331 274.776 179.872C275.313 179.409 275.982 179.177 276.782 179.177C277.334 179.177 277.842 179.297 278.306 179.538C278.77 179.775 279.124 180.099 279.368 180.512C279.616 180.924 279.74 181.363 279.74 181.826C279.74 182.267 279.623 182.668 279.389 183.029C279.154 183.391 278.807 183.678 278.347 183.891C278.945 184.031 279.409 184.32 279.74 184.761C280.071 185.196 280.237 185.743 280.237 186.402C280.237 187.292 279.915 188.048 279.271 188.669C278.628 189.285 277.814 189.594 276.83 189.594C275.943 189.594 275.205 189.327 274.617 188.794C274.033 188.261 273.7 187.57 273.617 186.722Z" fill="#88878C"/>
<path d="M286.146 189.413H284.905V181.437C284.606 181.724 284.213 182.012 283.726 182.299C283.243 182.586 282.809 182.802 282.423 182.946V181.736C283.117 181.407 283.724 181.008 284.243 180.54C284.763 180.071 285.13 179.617 285.346 179.177H286.146V189.413Z" fill="#88878C"/>
<path d="M229.682 186.722L230.923 186.555C231.065 187.264 231.307 187.776 231.647 188.092C231.992 188.402 232.41 188.557 232.902 188.557C233.486 188.557 233.978 188.353 234.377 187.946C234.782 187.538 234.984 187.032 234.984 186.43C234.984 185.855 234.798 185.382 234.426 185.011C234.053 184.636 233.58 184.448 233.005 184.448C232.771 184.448 232.479 184.494 232.13 184.587L232.267 183.488C232.35 183.497 232.417 183.502 232.467 183.502C232.996 183.502 233.472 183.363 233.895 183.085C234.318 182.807 234.529 182.378 234.529 181.798C234.529 181.339 234.375 180.959 234.067 180.658C233.759 180.357 233.362 180.206 232.874 180.206C232.392 180.206 231.989 180.359 231.668 180.665C231.346 180.971 231.139 181.43 231.047 182.042L229.806 181.819C229.957 180.98 230.302 180.331 230.84 179.872C231.378 179.409 232.047 179.177 232.847 179.177C233.398 179.177 233.906 179.297 234.371 179.538C234.835 179.775 235.189 180.099 235.432 180.512C235.681 180.924 235.805 181.363 235.805 181.826C235.805 182.267 235.688 182.668 235.453 183.029C235.219 183.391 234.872 183.678 234.412 183.891C235.01 184.031 235.474 184.32 235.805 184.761C236.136 185.196 236.301 185.743 236.301 186.402C236.301 187.292 235.98 188.048 235.336 188.669C234.692 189.285 233.879 189.594 232.895 189.594C232.008 189.594 231.27 189.327 230.681 188.794C230.098 188.261 229.764 187.57 229.682 186.722Z" fill="#88878C"/>
<path d="M237.536 184.385C237.536 183.18 237.657 182.211 237.901 181.478C238.149 180.741 238.515 180.173 238.997 179.775C239.485 179.376 240.096 179.177 240.832 179.177C241.374 179.177 241.85 179.288 242.259 179.511C242.668 179.728 243.006 180.046 243.273 180.463C243.539 180.876 243.748 181.381 243.9 181.979C244.052 182.573 244.128 183.375 244.128 184.385C244.128 185.581 244.006 186.548 243.762 187.285C243.519 188.017 243.153 188.585 242.666 188.989C242.183 189.387 241.572 189.587 240.832 189.587C239.857 189.587 239.092 189.234 238.535 188.53C237.869 187.681 237.536 186.3 237.536 184.385ZM238.811 184.385C238.811 186.059 239.004 187.174 239.39 187.73C239.781 188.282 240.262 188.557 240.832 188.557C241.402 188.557 241.88 188.279 242.266 187.723C242.657 187.167 242.852 186.054 242.852 184.385C242.852 182.707 242.657 181.592 242.266 181.04C241.88 180.489 241.397 180.213 240.818 180.213C240.248 180.213 239.793 180.456 239.453 180.943C239.025 181.564 238.811 182.712 238.811 184.385Z" fill="#88878C"/>
<path d="M192.263 188.21V189.413H185.581C185.572 189.111 185.62 188.822 185.726 188.544C185.896 188.085 186.167 187.633 186.54 187.188C186.917 186.743 187.459 186.228 188.167 185.644C189.266 184.735 190.008 184.017 190.394 183.488C190.78 182.955 190.973 182.452 190.973 181.979C190.973 181.483 190.796 181.066 190.442 180.727C190.093 180.384 189.636 180.213 189.07 180.213C188.473 180.213 187.995 180.394 187.636 180.755C187.277 181.117 187.096 181.618 187.091 182.257L185.816 182.125C185.903 181.166 186.232 180.435 186.802 179.935C187.372 179.429 188.137 179.177 189.098 179.177C190.068 179.177 190.836 179.448 191.401 179.99C191.966 180.533 192.249 181.205 192.249 182.007C192.249 182.415 192.166 182.816 192.001 183.21C191.835 183.604 191.56 184.019 191.173 184.455C190.792 184.89 190.155 185.489 189.263 186.249C188.519 186.879 188.041 187.308 187.829 187.535C187.618 187.758 187.443 187.983 187.305 188.21H192.263Z" fill="#88878C"/>
<path d="M193.787 187.055L194.98 186.944C195.081 187.51 195.274 187.92 195.559 188.175C195.844 188.43 196.209 188.557 196.655 188.557C197.037 188.557 197.37 188.469 197.655 188.293C197.945 188.117 198.182 187.883 198.365 187.591C198.549 187.294 198.703 186.896 198.827 186.395C198.952 185.894 199.014 185.384 199.014 184.865C199.014 184.809 199.011 184.726 199.007 184.615C198.758 185.013 198.418 185.338 197.986 185.588C197.559 185.834 197.094 185.957 196.593 185.957C195.757 185.957 195.049 185.651 194.469 185.039C193.89 184.427 193.601 183.62 193.601 182.619C193.601 181.585 193.902 180.753 194.504 180.122C195.111 179.492 195.869 179.177 196.779 179.177C197.437 179.177 198.037 179.355 198.579 179.712C199.126 180.069 199.54 180.579 199.82 181.242C200.105 181.9 200.248 182.855 200.248 184.107C200.248 185.41 200.108 186.448 199.827 187.222C199.547 187.992 199.129 188.578 198.572 188.982C198.021 189.385 197.372 189.587 196.628 189.587C195.837 189.587 195.191 189.366 194.69 188.926C194.189 188.481 193.888 187.857 193.787 187.055ZM198.869 182.556C198.869 181.838 198.678 181.268 198.296 180.846C197.919 180.424 197.464 180.213 196.931 180.213C196.38 180.213 195.899 180.44 195.49 180.894C195.081 181.349 194.876 181.937 194.876 182.661C194.876 183.31 195.069 183.838 195.456 184.246C195.846 184.649 196.327 184.851 196.897 184.851C197.471 184.851 197.942 184.649 198.31 184.246C198.683 183.838 198.869 183.275 198.869 182.556Z" fill="#88878C"/>
<path d="M60.4582 188.21V189.413H53.7765C53.7673 189.111 53.8156 188.822 53.9213 188.544C54.0914 188.085 54.3626 187.633 54.735 187.188C55.1119 186.743 55.6544 186.228 56.3623 185.644C57.461 184.735 58.2034 184.017 58.5895 183.488C58.9757 182.955 59.1688 182.452 59.1688 181.979C59.1688 181.483 58.9918 181.066 58.6378 180.727C58.2884 180.384 57.831 180.213 57.2656 180.213C56.668 180.213 56.1899 180.394 55.8313 180.755C55.4728 181.117 55.2912 181.618 55.2866 182.257L54.0109 182.125C54.0983 181.166 54.427 180.435 54.997 179.935C55.567 179.429 56.3324 179.177 57.2932 179.177C58.2632 179.177 59.0309 179.448 59.5963 179.99C60.1617 180.533 60.4444 181.205 60.4444 182.007C60.4444 182.415 60.3617 182.816 60.1962 183.21C60.0307 183.604 59.7549 184.019 59.3687 184.455C58.9872 184.89 58.3505 185.489 57.4587 186.249C56.714 186.879 56.2359 187.308 56.0244 187.535C55.813 187.758 55.6383 187.983 55.5004 188.21H60.4582Z" fill="#88878C"/>
<path d="M68.2363 181.715L67.002 181.812C66.8917 181.321 66.7354 180.964 66.5331 180.741C66.1976 180.384 65.7838 180.206 65.292 180.206C64.8966 180.206 64.5495 180.317 64.2507 180.54C63.86 180.827 63.552 181.247 63.3267 181.798C63.1015 182.35 62.9843 183.136 62.9751 184.156C63.2739 183.697 63.6393 183.356 64.0715 183.133C64.5036 182.911 64.9564 182.8 65.4299 182.8C66.2573 182.8 66.9607 183.108 67.5399 183.725C68.1237 184.336 68.4156 185.129 68.4156 186.103C68.4156 186.743 68.2777 187.338 68.0019 187.89C67.7307 188.437 67.356 188.856 66.8779 189.149C66.3998 189.441 65.8574 189.587 65.2506 189.587C64.2163 189.587 63.3727 189.204 62.7199 188.439C62.0672 187.67 61.7408 186.404 61.7408 184.642C61.7408 182.672 62.1016 181.24 62.8234 180.345C63.4532 179.566 64.3013 179.177 65.3678 179.177C66.1631 179.177 66.8136 179.402 67.3192 179.851C67.8295 180.301 68.1352 180.922 68.2363 181.715ZM63.1681 186.11C63.1681 186.541 63.2578 186.953 63.4371 187.347C63.6209 187.742 63.8761 188.043 64.2025 188.251C64.5289 188.455 64.8713 188.557 65.2299 188.557C65.7539 188.557 66.2045 188.344 66.5814 187.918C66.9584 187.491 67.1468 186.912 67.1468 186.179C67.1468 185.475 66.9607 184.921 66.5883 184.517C66.2159 184.109 65.7471 183.905 65.1816 183.905C64.6208 183.905 64.145 184.109 63.7543 184.517C63.3635 184.921 63.1681 185.451 63.1681 186.11Z" fill="#88878C"/>
<path d="M104.393 188.21V189.413H97.7111C97.7019 189.111 97.7501 188.822 97.8559 188.544C98.026 188.085 98.2972 187.633 98.6695 187.188C99.0465 186.743 99.5889 186.228 100.297 185.644C101.396 184.735 102.138 184.017 102.524 183.488C102.91 182.955 103.103 182.452 103.103 181.979C103.103 181.483 102.926 181.066 102.572 180.727C102.223 180.384 101.766 180.213 101.2 180.213C100.603 180.213 100.124 180.394 99.7659 180.755C99.4074 181.117 99.2258 181.618 99.2212 182.257L97.9455 182.125C98.0329 181.166 98.3615 180.435 98.9316 179.935C99.5016 179.429 100.267 179.177 101.228 179.177C102.198 179.177 102.965 179.448 103.531 179.99C104.096 180.533 104.379 181.205 104.379 182.007C104.379 182.415 104.296 182.816 104.131 183.21C103.965 183.604 103.689 184.019 103.303 184.455C102.922 184.89 102.285 185.489 101.393 186.249C100.649 186.879 100.17 187.308 99.959 187.535C99.7475 187.758 99.5728 187.983 99.4349 188.21H104.393Z" fill="#88878C"/>
<path d="M105.813 180.554V179.351H112.357V180.324C111.713 181.015 111.075 181.933 110.44 183.078C109.81 184.223 109.323 185.4 108.978 186.61C108.73 187.463 108.571 188.398 108.502 189.413H107.227C107.241 188.611 107.397 187.642 107.696 186.506C107.995 185.37 108.422 184.276 108.978 183.224C109.539 182.167 110.134 181.277 110.764 180.554H105.813Z" fill="#88878C"/>
<path d="M148.328 188.21V189.413H141.647C141.637 189.111 141.686 188.822 141.791 188.544C141.962 188.085 142.233 187.633 142.605 187.188C142.982 186.743 143.524 186.228 144.232 185.644C145.331 184.735 146.074 184.017 146.46 183.488C146.846 182.955 147.039 182.452 147.039 181.979C147.039 181.483 146.862 181.066 146.508 180.727C146.159 180.384 145.701 180.213 145.136 180.213C144.538 180.213 144.06 180.394 143.701 180.755C143.343 181.117 143.161 181.618 143.157 182.257L141.881 182.125C141.968 181.166 142.297 180.435 142.867 179.935C143.437 179.429 144.203 179.177 145.163 179.177C146.133 179.177 146.901 179.448 147.466 179.99C148.032 180.533 148.315 181.205 148.315 182.007C148.315 182.415 148.232 182.816 148.066 183.21C147.901 183.604 147.625 184.019 147.239 184.455C146.857 184.89 146.221 185.489 145.329 186.249C144.584 186.879 144.106 187.308 143.895 187.535C143.683 187.758 143.508 187.983 143.37 188.21H148.328Z" fill="#88878C"/>
<path d="M151.576 183.884C151.061 183.694 150.68 183.423 150.431 183.071C150.183 182.719 150.059 182.297 150.059 181.805C150.059 181.064 150.323 180.44 150.852 179.935C151.381 179.429 152.084 179.177 152.962 179.177C153.845 179.177 154.555 179.436 155.093 179.956C155.631 180.47 155.9 181.098 155.9 181.84C155.9 182.313 155.775 182.726 155.527 183.078C155.284 183.426 154.911 183.694 154.41 183.884C155.031 184.088 155.502 184.418 155.824 184.872C156.15 185.326 156.313 185.869 156.313 186.499C156.313 187.371 156.008 188.103 155.396 188.697C154.785 189.29 153.98 189.587 152.983 189.587C151.985 189.587 151.181 189.29 150.569 188.697C149.958 188.099 149.652 187.354 149.652 186.464C149.652 185.801 149.818 185.247 150.149 184.802C150.484 184.353 150.96 184.047 151.576 183.884ZM151.328 181.764C151.328 182.246 151.482 182.64 151.79 182.946C152.098 183.252 152.498 183.405 152.99 183.405C153.468 183.405 153.859 183.254 154.162 182.953C154.47 182.647 154.624 182.274 154.624 181.833C154.624 181.374 154.465 180.989 154.148 180.679C153.836 180.364 153.445 180.206 152.976 180.206C152.502 180.206 152.109 180.359 151.797 180.665C151.484 180.971 151.328 181.337 151.328 181.764ZM150.928 186.471C150.928 186.828 151.011 187.174 151.176 187.507C151.346 187.841 151.597 188.101 151.928 188.286C152.259 188.467 152.615 188.557 152.997 188.557C153.59 188.557 154.079 188.365 154.465 187.98C154.851 187.596 155.045 187.106 155.045 186.513C155.045 185.91 154.845 185.412 154.445 185.018C154.049 184.624 153.553 184.427 152.955 184.427C152.371 184.427 151.886 184.622 151.5 185.011C151.119 185.4 150.928 185.887 150.928 186.471Z" fill="#88878C"/>
<path d="M323.378 225.027C322.863 224.837 322.482 224.565 322.233 224.213C321.985 223.861 321.861 223.439 321.861 222.947C321.861 222.206 322.125 221.582 322.654 221.077C323.183 220.572 323.886 220.319 324.764 220.319C325.647 220.319 326.357 220.578 326.895 221.098C327.432 221.612 327.701 222.24 327.701 222.982C327.701 223.455 327.577 223.868 327.329 224.22C327.085 224.568 326.713 224.837 326.212 225.027C326.833 225.231 327.304 225.56 327.626 226.014C327.952 226.468 328.115 227.011 328.115 227.641C328.115 228.513 327.809 229.245 327.198 229.839C326.587 230.432 325.782 230.729 324.785 230.729C323.787 230.729 322.983 230.432 322.371 229.839C321.76 229.241 321.454 228.497 321.454 227.606C321.454 226.944 321.62 226.39 321.951 225.944C322.286 225.495 322.762 225.189 323.378 225.027ZM323.13 222.906C323.13 223.388 323.284 223.782 323.592 224.088C323.9 224.394 324.3 224.547 324.792 224.547C325.27 224.547 325.66 224.396 325.964 224.095C326.272 223.789 326.426 223.416 326.426 222.975C326.426 222.516 326.267 222.131 325.95 221.821C325.637 221.506 325.247 221.348 324.778 221.348C324.304 221.348 323.911 221.501 323.599 221.807C323.286 222.113 323.13 222.479 323.13 222.906ZM322.73 227.613C322.73 227.97 322.813 228.316 322.978 228.65C323.148 228.983 323.399 229.243 323.73 229.428C324.061 229.609 324.417 229.7 324.798 229.7C325.391 229.7 325.881 229.507 326.267 229.122C326.653 228.738 326.846 228.249 326.846 227.655C326.846 227.052 326.646 226.554 326.246 226.16C325.851 225.766 325.355 225.569 324.757 225.569C324.173 225.569 323.688 225.764 323.302 226.153C322.921 226.543 322.73 227.029 322.73 227.613Z" fill="white"/>
<path d="M58.0446 269.339L59.2375 269.228C59.3386 269.793 59.5317 270.204 59.8167 270.459C60.1017 270.714 60.4672 270.841 60.9131 270.841C61.2946 270.841 61.6279 270.753 61.9129 270.577C62.2026 270.401 62.4393 270.167 62.6232 269.875C62.8071 269.578 62.9611 269.179 63.0852 268.679C63.2093 268.178 63.2714 267.668 63.2714 267.149C63.2714 267.093 63.2691 267.01 63.2645 266.898C63.0162 267.297 62.676 267.622 62.2439 267.872C61.8164 268.118 61.3521 268.24 60.851 268.24C60.0144 268.24 59.3065 267.934 58.7272 267.323C58.148 266.711 57.8584 265.904 57.8584 264.903C57.8584 263.869 58.1595 263.037 58.7617 262.406C59.3685 261.776 60.127 261.46 61.0372 261.46C61.6946 261.46 62.2945 261.639 62.8369 261.996C63.384 262.353 63.7977 262.863 64.0781 263.526C64.3631 264.184 64.5056 265.139 64.5056 266.391C64.5056 267.693 64.3654 268.732 64.085 269.506C63.8046 270.276 63.3863 270.862 62.83 271.265C62.2784 271.669 61.6302 271.87 60.8855 271.87C60.0948 271.87 59.449 271.65 58.9479 271.21C58.4468 270.765 58.1457 270.141 58.0446 269.339ZM63.1265 264.84C63.1265 264.121 62.9358 263.551 62.5542 263.129C62.1773 262.708 61.7222 262.497 61.1889 262.497C60.6373 262.497 60.1569 262.724 59.7478 263.178C59.3386 263.632 59.1341 264.221 59.1341 264.944C59.1341 265.593 59.3271 266.122 59.7133 266.53C60.104 266.933 60.5844 267.135 61.1544 267.135C61.7291 267.135 62.2003 266.933 62.568 266.53C62.9404 266.122 63.1265 265.559 63.1265 264.84Z" fill="white"/>
<path d="M147.265 271.696H146.023V263.72C145.725 264.008 145.332 264.295 144.844 264.583C144.362 264.87 143.927 265.086 143.541 265.229V264.019C144.235 263.69 144.842 263.292 145.361 262.823C145.881 262.355 146.249 261.901 146.465 261.46H147.265V271.696Z" fill="white"/>
<path d="M154.077 271.696H152.836V263.72C152.537 264.008 152.144 264.295 151.657 264.583C151.174 264.87 150.74 265.086 150.354 265.229V264.019C151.048 263.69 151.655 263.292 152.174 262.823C152.694 262.355 153.061 261.901 153.277 261.46H154.077V271.696Z" fill="white"/>
<path d="M190.415 271.696H189.174V263.72C188.875 264.008 188.482 264.295 187.995 264.583C187.512 264.87 187.078 265.086 186.691 265.229V264.019C187.386 263.69 187.992 263.292 188.512 262.823C189.031 262.355 189.399 261.901 189.615 261.46H190.415V271.696Z" fill="white"/>
<path d="M200.124 270.493V271.696H193.442C193.433 271.395 193.481 271.105 193.587 270.827C193.757 270.368 194.028 269.916 194.401 269.471C194.778 269.026 195.32 268.512 196.028 267.928C197.127 267.019 197.869 266.3 198.255 265.772C198.641 265.239 198.834 264.736 198.834 264.263C198.834 263.767 198.657 263.35 198.303 263.011C197.954 262.668 197.497 262.497 196.931 262.497C196.334 262.497 195.856 262.677 195.497 263.039C195.138 263.401 194.957 263.901 194.952 264.541L193.677 264.409C193.764 263.449 194.093 262.719 194.663 262.218C195.233 261.713 195.998 261.46 196.959 261.46C197.929 261.46 198.696 261.732 199.262 262.274C199.827 262.816 200.11 263.489 200.11 264.291C200.11 264.699 200.027 265.1 199.862 265.494C199.696 265.888 199.42 266.303 199.034 266.738C198.653 267.174 198.016 267.772 197.124 268.532C196.38 269.163 195.901 269.592 195.69 269.819C195.479 270.041 195.304 270.266 195.166 270.493H200.124Z" fill="white"/>
<path d="M278.285 271.696H277.044V263.72C276.745 264.008 276.352 264.295 275.865 264.583C275.382 264.87 274.948 265.086 274.562 265.229V264.019C275.256 263.69 275.862 263.292 276.382 262.823C276.901 262.355 277.269 261.901 277.485 261.46H278.285V271.696Z" fill="white"/>
<path d="M285.449 271.696V269.256H281.064V268.108L285.677 261.502H286.691V268.108H288.056V269.256H286.691V271.696H285.449ZM285.449 268.108V263.512L282.284 268.108H285.449Z" fill="white"/>
<path d="M322.22 271.696H320.978V263.72C320.68 264.008 320.287 264.295 319.799 264.583C319.317 264.87 318.882 265.086 318.496 265.229V264.019C319.19 263.69 319.797 263.292 320.317 262.823C320.836 262.355 321.204 261.901 321.42 261.46H322.22V271.696Z" fill="white"/>
<path d="M325.405 269.026L326.709 268.915C326.805 269.555 327.028 270.037 327.377 270.361C327.731 270.681 328.157 270.841 328.653 270.841C329.251 270.841 329.756 270.614 330.17 270.16C330.584 269.705 330.791 269.103 330.791 268.352C330.791 267.638 330.591 267.075 330.191 266.662C329.795 266.249 329.276 266.043 328.632 266.043C328.233 266.043 327.872 266.136 327.55 266.321C327.228 266.502 326.975 266.738 326.791 267.03L325.626 266.877L326.605 261.641H331.632V262.837H327.598L327.053 265.577C327.66 265.151 328.297 264.937 328.963 264.937C329.846 264.937 330.591 265.246 331.198 265.862C331.804 266.479 332.108 267.272 332.108 268.24C332.108 269.163 331.841 269.96 331.308 270.633C330.66 271.458 329.775 271.87 328.653 271.87C327.734 271.87 326.982 271.611 326.398 271.091C325.819 270.572 325.488 269.884 325.405 269.026Z" fill="white"/>
<path d="M58.6103 312.839H57.3691V304.863C57.0703 305.15 56.6772 305.437 56.19 305.725C55.7073 306.012 55.2729 306.228 54.8867 306.372V305.162C55.5809 304.832 56.1877 304.434 56.7071 303.965C57.2266 303.497 57.5943 303.043 57.8104 302.603H58.6103V312.839Z" fill="white"/>
<path d="M68.2364 305.141L67.0021 305.238C66.8918 304.747 66.7355 304.39 66.5332 304.167C66.1976 303.81 65.7839 303.632 65.292 303.632C64.8967 303.632 64.5496 303.743 64.2508 303.965C63.86 304.253 63.552 304.672 63.3268 305.224C63.1015 305.776 62.9843 306.562 62.9751 307.581C63.2739 307.123 63.6394 306.782 64.0715 306.559C64.5036 306.337 64.9564 306.225 65.4299 306.225C66.2574 306.225 66.9607 306.534 67.5399 307.15C68.1237 307.762 68.4157 308.555 68.4157 309.529C68.4157 310.168 68.2777 310.764 68.0019 311.316C67.7307 311.863 67.3561 312.282 66.878 312.574C66.3999 312.866 65.8574 313.012 65.2506 313.012C64.2163 313.012 63.3728 312.63 62.72 311.865C62.0672 311.095 61.7408 309.83 61.7408 308.068C61.7408 306.098 62.1017 304.666 62.8234 303.771C63.4532 302.992 64.3014 302.603 65.3679 302.603C66.1631 302.603 66.8136 302.827 67.3193 303.277C67.8295 303.727 68.1352 304.348 68.2364 305.141ZM63.1682 309.536C63.1682 309.967 63.2578 310.379 63.4371 310.773C63.621 311.167 63.8761 311.469 64.2025 311.677C64.5289 311.881 64.8714 311.983 65.2299 311.983C65.754 311.983 66.2045 311.77 66.5815 311.343C66.9584 310.917 67.1469 310.338 67.1469 309.605C67.1469 308.9 66.9607 308.346 66.5884 307.943C66.216 307.535 65.7471 307.331 65.1817 307.331C64.6208 307.331 64.1451 307.535 63.7543 307.943C63.3636 308.346 63.1682 308.877 63.1682 309.536Z" fill="white"/>
<path d="M102.545 312.839H101.304V304.863C101.005 305.15 100.612 305.437 100.125 305.725C99.6419 306.012 99.2074 306.228 98.8213 306.372V305.162C99.5154 304.832 100.122 304.434 100.642 303.965C101.161 303.497 101.529 303.043 101.745 302.603H102.545V312.839Z" fill="white"/>
<path d="M105.813 303.979V302.776H112.357V303.75C111.714 304.441 111.075 305.359 110.44 306.504C109.81 307.649 109.323 308.826 108.978 310.036C108.73 310.889 108.572 311.823 108.503 312.839H107.227C107.241 312.037 107.397 311.068 107.696 309.932C107.995 308.796 108.422 307.702 108.978 306.65C109.539 305.593 110.134 304.703 110.764 303.979H105.813Z" fill="white"/>
<path d="M146.48 312.839H145.239V304.863C144.94 305.15 144.547 305.437 144.06 305.725C143.577 306.012 143.143 306.228 142.757 306.372V305.162C143.451 304.832 144.058 304.434 144.577 303.965C145.097 303.497 145.464 303.043 145.681 302.603H146.48V312.839Z" fill="white"/>
<path d="M151.576 307.31C151.061 307.12 150.68 306.849 150.432 306.497C150.183 306.144 150.059 305.722 150.059 305.231C150.059 304.489 150.323 303.866 150.852 303.361C151.381 302.855 152.084 302.603 152.962 302.603C153.845 302.603 154.555 302.862 155.093 303.381C155.631 303.896 155.9 304.524 155.9 305.266C155.9 305.739 155.776 306.151 155.527 306.504C155.284 306.851 154.911 307.12 154.41 307.31C155.031 307.514 155.502 307.843 155.824 308.298C156.15 308.752 156.313 309.294 156.313 309.925C156.313 310.796 156.008 311.529 155.396 312.122C154.785 312.716 153.98 313.012 152.983 313.012C151.985 313.012 151.181 312.716 150.569 312.122C149.958 311.524 149.652 310.78 149.652 309.89C149.652 309.227 149.818 308.673 150.149 308.228C150.484 307.779 150.96 307.473 151.576 307.31ZM151.328 305.189C151.328 305.671 151.482 306.066 151.79 306.372C152.098 306.677 152.498 306.83 152.99 306.83C153.468 306.83 153.859 306.68 154.162 306.378C154.47 306.072 154.624 305.699 154.624 305.259C154.624 304.8 154.465 304.415 154.148 304.105C153.836 303.789 153.445 303.632 152.976 303.632C152.502 303.632 152.109 303.785 151.797 304.091C151.484 304.397 151.328 304.763 151.328 305.189ZM150.928 309.897C150.928 310.254 151.011 310.599 151.176 310.933C151.346 311.267 151.597 311.527 151.928 311.712C152.259 311.893 152.615 311.983 152.997 311.983C153.59 311.983 154.079 311.791 154.465 311.406C154.852 311.021 155.045 310.532 155.045 309.939C155.045 309.336 154.845 308.838 154.445 308.444C154.049 308.05 153.553 307.853 152.955 307.853C152.371 307.853 151.886 308.047 151.5 308.437C151.119 308.826 150.928 309.313 150.928 309.897Z" fill="white"/>
<path d="M190.415 312.839H189.174V304.863C188.875 305.15 188.482 305.437 187.995 305.725C187.512 306.012 187.078 306.228 186.691 306.372V305.162C187.386 304.832 187.992 304.434 188.512 303.965C189.031 303.497 189.399 303.043 189.615 302.603H190.415V312.839Z" fill="white"/>
<path d="M193.787 310.481L194.98 310.37C195.081 310.936 195.274 311.346 195.559 311.601C195.844 311.856 196.209 311.983 196.655 311.983C197.037 311.983 197.37 311.895 197.655 311.719C197.945 311.543 198.182 311.309 198.365 311.017C198.549 310.72 198.703 310.321 198.827 309.821C198.952 309.32 199.014 308.81 199.014 308.291C199.014 308.235 199.011 308.152 199.007 308.04C198.759 308.439 198.418 308.764 197.986 309.014C197.559 309.26 197.094 309.383 196.593 309.383C195.757 309.383 195.049 309.077 194.47 308.465C193.89 307.853 193.601 307.046 193.601 306.045C193.601 305.011 193.902 304.179 194.504 303.548C195.111 302.918 195.869 302.603 196.779 302.603C197.437 302.603 198.037 302.781 198.579 303.138C199.126 303.495 199.54 304.005 199.82 304.668C200.105 305.326 200.248 306.281 200.248 307.533C200.248 308.835 200.108 309.874 199.827 310.648C199.547 311.418 199.129 312.004 198.572 312.407C198.021 312.811 197.373 313.012 196.628 313.012C195.837 313.012 195.191 312.792 194.69 312.352C194.189 311.907 193.888 311.283 193.787 310.481ZM198.869 305.982C198.869 305.264 198.678 304.693 198.297 304.271C197.92 303.85 197.464 303.639 196.931 303.639C196.38 303.639 195.899 303.866 195.49 304.32C195.081 304.774 194.876 305.363 194.876 306.086C194.876 306.735 195.069 307.264 195.456 307.672C195.846 308.075 196.327 308.277 196.897 308.277C197.471 308.277 197.943 308.075 198.31 307.672C198.683 307.264 198.869 306.701 198.869 305.982Z" fill="white"/>
<path d="M236.198 311.636V312.839H229.517C229.508 312.537 229.556 312.247 229.662 311.969C229.832 311.51 230.103 311.058 230.475 310.613C230.852 310.168 231.395 309.654 232.103 309.07C233.201 308.161 233.944 307.442 234.33 306.914C234.716 306.381 234.909 305.878 234.909 305.405C234.909 304.909 234.732 304.492 234.378 304.153C234.029 303.81 233.571 303.639 233.006 303.639C232.408 303.639 231.93 303.819 231.572 304.181C231.213 304.543 231.031 305.043 231.027 305.683L229.751 305.551C229.839 304.591 230.167 303.861 230.737 303.361C231.307 302.855 232.073 302.603 233.033 302.603C234.003 302.603 234.771 302.874 235.337 303.416C235.902 303.959 236.185 304.631 236.185 305.433C236.185 305.841 236.102 306.242 235.936 306.636C235.771 307.03 235.495 307.445 235.109 307.88C234.727 308.316 234.091 308.914 233.199 309.675C232.454 310.305 231.976 310.734 231.765 310.961C231.553 311.184 231.379 311.408 231.241 311.636H236.198Z" fill="white"/>
<path d="M237.536 307.811C237.536 306.606 237.658 305.637 237.902 304.904C238.15 304.167 238.515 303.599 238.998 303.201C239.485 302.802 240.097 302.603 240.832 302.603C241.375 302.603 241.85 302.714 242.26 302.936C242.669 303.154 243.007 303.472 243.273 303.889C243.54 304.302 243.749 304.807 243.901 305.405C244.052 305.998 244.128 306.8 244.128 307.811C244.128 309.007 244.006 309.974 243.763 310.711C243.519 311.443 243.154 312.011 242.666 312.414C242.184 312.813 241.572 313.012 240.832 313.012C239.858 313.012 239.092 312.66 238.536 311.955C237.869 311.107 237.536 309.726 237.536 307.811ZM238.812 307.811C238.812 309.485 239.005 310.599 239.391 311.156C239.782 311.707 240.262 311.983 240.832 311.983C241.402 311.983 241.88 311.705 242.266 311.149C242.657 310.592 242.853 309.48 242.853 307.811C242.853 306.133 242.657 305.018 242.266 304.466C241.88 303.914 241.398 303.639 240.818 303.639C240.248 303.639 239.793 303.882 239.453 304.369C239.026 304.99 238.812 306.137 238.812 307.811Z" fill="white"/>
<path d="M280.133 311.636V312.839H273.451C273.442 312.537 273.49 312.247 273.596 311.969C273.766 311.51 274.037 311.058 274.41 310.613C274.787 310.168 275.329 309.654 276.037 309.07C277.136 308.161 277.878 307.442 278.264 306.914C278.65 306.381 278.844 305.878 278.844 305.405C278.844 304.909 278.667 304.492 278.313 304.153C277.963 303.81 277.506 303.639 276.94 303.639C276.343 303.639 275.865 303.819 275.506 304.181C275.148 304.543 274.966 305.043 274.961 305.683L273.686 305.551C273.773 304.591 274.102 303.861 274.672 303.361C275.242 302.855 276.007 302.603 276.968 302.603C277.938 302.603 278.706 302.874 279.271 303.416C279.837 303.959 280.119 304.631 280.119 305.433C280.119 305.841 280.036 306.242 279.871 306.636C279.706 307.03 279.43 307.445 279.044 307.88C278.662 308.316 278.025 308.914 277.133 309.675C276.389 310.305 275.911 310.734 275.699 310.961C275.488 311.184 275.313 311.408 275.175 311.636H280.133Z" fill="white"/>
<path d="M286.146 312.839H284.905V304.863C284.606 305.15 284.213 305.437 283.726 305.725C283.243 306.012 282.808 306.228 282.422 306.372V305.162C283.116 304.832 283.723 304.434 284.243 303.965C284.762 303.497 285.13 303.043 285.346 302.603H286.146V312.839Z" fill="white"/>
<path d="M324.068 311.636V312.839H317.386C317.377 312.537 317.425 312.247 317.531 311.969C317.701 311.51 317.972 311.058 318.344 310.613C318.721 310.168 319.264 309.654 319.972 309.07C321.07 308.161 321.813 307.442 322.199 306.914C322.585 306.381 322.778 305.878 322.778 305.405C322.778 304.909 322.601 304.492 322.247 304.153C321.898 303.81 321.44 303.639 320.875 303.639C320.277 303.639 319.799 303.819 319.441 304.181C319.082 304.543 318.901 305.043 318.896 305.683L317.62 305.551C317.708 304.591 318.036 303.861 318.606 303.361C319.176 302.855 319.942 302.603 320.903 302.603C321.873 302.603 322.64 302.874 323.206 303.416C323.771 303.959 324.054 304.631 324.054 305.433C324.054 305.841 323.971 306.242 323.806 306.636C323.64 307.03 323.364 307.445 322.978 307.88C322.597 308.316 321.96 308.914 321.068 309.675C320.323 310.305 319.845 310.734 319.634 310.961C319.422 311.184 319.248 311.408 319.11 311.636H324.068Z" fill="white"/>
<path d="M331.928 311.636V312.839H325.247C325.238 312.537 325.286 312.247 325.392 311.969C325.562 311.51 325.833 311.058 326.205 310.613C326.582 310.168 327.125 309.654 327.833 309.07C328.931 308.161 329.674 307.442 330.06 306.914C330.446 306.381 330.639 305.878 330.639 305.405C330.639 304.909 330.462 304.492 330.108 304.153C329.759 303.81 329.301 303.639 328.736 303.639C328.138 303.639 327.66 303.819 327.302 304.181C326.943 304.543 326.761 305.043 326.757 305.683L325.481 305.551C325.569 304.591 325.897 303.861 326.467 303.361C327.037 302.855 327.803 302.603 328.763 302.603C329.733 302.603 330.501 302.874 331.067 303.416C331.632 303.959 331.915 304.631 331.915 305.433C331.915 305.841 331.832 306.242 331.666 306.636C331.501 307.03 331.225 307.445 330.839 307.88C330.457 308.316 329.821 308.914 328.929 309.675C328.184 310.305 327.706 310.734 327.495 310.961C327.283 311.184 327.109 311.408 326.971 311.636H331.928Z" fill="white"/>
<path d="M60.4582 352.777V353.98H53.7765C53.7673 353.679 53.8156 353.389 53.9213 353.111C54.0914 352.652 54.3626 352.2 54.735 351.755C55.1119 351.31 55.6544 350.795 56.3623 350.211C57.461 349.303 58.2034 348.584 58.5895 348.056C58.9757 347.522 59.1688 347.019 59.1688 346.547C59.1688 346.05 58.9918 345.633 58.6378 345.295C58.2884 344.952 57.831 344.78 57.2656 344.78C56.668 344.78 56.1899 344.961 55.8313 345.323C55.4728 345.684 55.2912 346.185 55.2866 346.825L54.0109 346.693C54.0983 345.733 54.427 345.003 54.997 344.502C55.567 343.997 56.3324 343.744 57.2932 343.744C58.2632 343.744 59.0309 344.015 59.5963 344.558C60.1617 345.1 60.4444 345.772 60.4444 346.574C60.4444 346.982 60.3617 347.383 60.1962 347.777C60.0307 348.171 59.7549 348.586 59.3687 349.022C58.9872 349.458 58.3505 350.056 57.4587 350.816C56.714 351.447 56.2359 351.875 56.0244 352.103C55.813 352.325 55.6383 352.55 55.5004 352.777H60.4582Z" fill="white"/>
<path d="M61.8028 351.289L63.044 351.122C63.1865 351.831 63.4279 352.344 63.7681 352.659C64.1128 352.97 64.5311 353.125 65.023 353.125C65.6068 353.125 66.0987 352.921 66.4987 352.513C66.9032 352.105 67.1055 351.6 67.1055 350.997C67.1055 350.422 66.9193 349.949 66.5469 349.578C66.1746 349.203 65.7011 349.015 65.1265 349.015C64.892 349.015 64.6001 349.061 64.2507 349.154L64.3886 348.056C64.4714 348.065 64.538 348.069 64.5886 348.069C65.1173 348.069 65.5931 347.93 66.016 347.652C66.4389 347.374 66.6504 346.945 66.6504 346.366C66.6504 345.907 66.4964 345.527 66.1884 345.225C65.8804 344.924 65.4827 344.773 64.9954 344.773C64.5128 344.773 64.1105 344.926 63.7887 345.232C63.4669 345.538 63.2601 345.997 63.1681 346.609L61.927 346.387C62.0787 345.547 62.4234 344.898 62.9613 344.44C63.4991 343.976 64.168 343.744 64.9679 343.744C65.5195 343.744 66.0275 343.865 66.4918 344.106C66.9561 344.342 67.31 344.667 67.5537 345.079C67.8019 345.492 67.926 345.93 67.926 346.394C67.926 346.834 67.8088 347.235 67.5744 347.597C67.3399 347.958 66.9928 348.246 66.5331 348.459C67.1307 348.598 67.595 348.888 67.926 349.328C68.257 349.764 68.4225 350.311 68.4225 350.969C68.4225 351.859 68.1007 352.615 67.4571 353.236C66.8136 353.853 65.9999 354.161 65.0161 354.161C64.1289 354.161 63.3911 353.894 62.8027 353.361C62.2189 352.828 61.8856 352.137 61.8028 351.289Z" fill="white"/>
<path d="M104.394 352.777V353.98H97.712C97.7028 353.679 97.7511 353.389 97.8568 353.111C98.0269 352.652 98.2982 352.2 98.6705 351.755C99.0475 351.31 99.5899 350.795 100.298 350.211C101.397 349.303 102.139 348.584 102.525 348.056C102.911 347.522 103.104 347.019 103.104 346.547C103.104 346.05 102.927 345.633 102.573 345.295C102.224 344.952 101.767 344.78 101.201 344.78C100.604 344.78 100.125 344.961 99.7669 345.323C99.4083 345.684 99.2267 346.185 99.2222 346.825L97.9465 346.693C98.0338 345.733 98.3625 345.003 98.9325 344.502C99.5026 343.997 100.268 343.744 101.229 343.744C102.199 343.744 102.966 344.015 103.532 344.558C104.097 345.1 104.38 345.772 104.38 346.574C104.38 346.982 104.297 347.383 104.132 347.777C103.966 348.171 103.69 348.586 103.304 349.022C102.923 349.458 102.286 350.056 101.394 350.816C100.65 351.447 100.171 351.875 99.96 352.103C99.7485 352.325 99.5738 352.55 99.4359 352.777H104.394Z" fill="white"/>
<path d="M109.71 353.98V351.539H105.325V350.392L109.938 343.786H110.951V350.392H112.317V351.539H110.951V353.98H109.71ZM109.71 350.392V345.796L106.545 350.392H109.71Z" fill="white"/>
<path d="M148.328 352.777V353.98H141.647C141.637 353.679 141.686 353.389 141.791 353.111C141.962 352.652 142.233 352.2 142.605 351.755C142.982 351.31 143.524 350.795 144.232 350.211C145.331 349.303 146.074 348.584 146.46 348.056C146.846 347.522 147.039 347.019 147.039 346.547C147.039 346.05 146.862 345.633 146.508 345.295C146.159 344.952 145.701 344.78 145.136 344.78C144.538 344.78 144.06 344.961 143.701 345.323C143.343 345.684 143.161 346.185 143.157 346.825L141.881 346.693C141.968 345.733 142.297 345.003 142.867 344.502C143.437 343.997 144.203 343.744 145.163 343.744C146.133 343.744 146.901 344.015 147.466 344.558C148.032 345.1 148.315 345.772 148.315 346.574C148.315 346.982 148.232 347.383 148.066 347.777C147.901 348.171 147.625 348.586 147.239 349.022C146.857 349.458 146.221 350.056 145.329 350.816C144.584 351.447 144.106 351.875 143.895 352.103C143.683 352.325 143.508 352.55 143.37 352.777H148.328Z" fill="white"/>
<path d="M149.666 351.31L150.969 351.199C151.066 351.838 151.289 352.321 151.638 352.645C151.992 352.965 152.417 353.125 152.914 353.125C153.511 353.125 154.017 352.898 154.431 352.443C154.845 351.989 155.051 351.386 155.051 350.635C155.051 349.921 154.851 349.358 154.452 348.946C154.056 348.533 153.537 348.327 152.893 348.327C152.493 348.327 152.132 348.419 151.811 348.605C151.489 348.786 151.236 349.022 151.052 349.314L149.887 349.161L150.866 343.925H155.893V345.121H151.859L151.314 347.861C151.921 347.434 152.558 347.221 153.224 347.221C154.107 347.221 154.851 347.529 155.458 348.146C156.065 348.762 156.368 349.555 156.368 350.524C156.368 351.447 156.102 352.244 155.569 352.916C154.92 353.741 154.035 354.154 152.914 354.154C151.994 354.154 151.243 353.894 150.659 353.375C150.08 352.856 149.749 352.168 149.666 351.31Z" fill="white"/>
<path d="M192.263 352.777V353.98H185.581C185.572 353.679 185.62 353.389 185.726 353.111C185.896 352.652 186.167 352.2 186.54 351.755C186.917 351.31 187.459 350.795 188.167 350.211C189.266 349.303 190.008 348.584 190.394 348.056C190.78 347.522 190.973 347.019 190.973 346.547C190.973 346.05 190.796 345.633 190.442 345.295C190.093 344.952 189.636 344.78 189.07 344.78C188.473 344.78 187.995 344.961 187.636 345.323C187.277 345.684 187.096 346.185 187.091 346.825L185.816 346.693C185.903 345.733 186.232 345.003 186.802 344.502C187.372 343.997 188.137 343.744 189.098 343.744C190.068 343.744 190.836 344.015 191.401 344.558C191.966 345.1 192.249 345.772 192.249 346.574C192.249 346.982 192.166 347.383 192.001 347.777C191.835 348.171 191.56 348.586 191.173 349.022C190.792 349.458 190.155 350.056 189.263 350.816C188.519 351.447 188.041 351.875 187.829 352.103C187.618 352.325 187.443 352.55 187.305 352.777H192.263Z" fill="white"/>
<path d="M200.041 346.282L198.807 346.38C198.696 345.888 198.54 345.531 198.338 345.309C198.002 344.952 197.589 344.773 197.097 344.773C196.701 344.773 196.354 344.885 196.055 345.107C195.665 345.395 195.357 345.814 195.131 346.366C194.906 346.917 194.789 347.703 194.78 348.723C195.079 348.264 195.444 347.923 195.876 347.701C196.308 347.478 196.761 347.367 197.235 347.367C198.062 347.367 198.765 347.675 199.345 348.292C199.928 348.904 200.22 349.697 200.22 350.67C200.22 351.31 200.082 351.906 199.807 352.457C199.535 353.004 199.161 353.424 198.683 353.716C198.205 354.008 197.662 354.154 197.055 354.154C196.021 354.154 195.177 353.772 194.525 353.007C193.872 352.237 193.545 350.971 193.545 349.21C193.545 347.24 193.906 345.807 194.628 344.912C195.258 344.134 196.106 343.744 197.172 343.744C197.968 343.744 198.618 343.969 199.124 344.419C199.634 344.868 199.94 345.49 200.041 346.282ZM194.973 350.677C194.973 351.108 195.062 351.521 195.242 351.915C195.426 352.309 195.681 352.61 196.007 352.819C196.334 353.023 196.676 353.125 197.035 353.125C197.559 353.125 198.009 352.912 198.386 352.485C198.763 352.059 198.952 351.479 198.952 350.747C198.952 350.042 198.765 349.488 198.393 349.085C198.021 348.677 197.552 348.473 196.986 348.473C196.425 348.473 195.95 348.677 195.559 349.085C195.168 349.488 194.973 350.019 194.973 350.677Z" fill="white"/>
<path d="M236.198 352.777V353.98H229.517C229.508 353.679 229.556 353.389 229.662 353.111C229.832 352.652 230.103 352.2 230.475 351.755C230.852 351.31 231.395 350.795 232.103 350.211C233.201 349.303 233.944 348.584 234.33 348.056C234.716 347.522 234.909 347.019 234.909 346.547C234.909 346.05 234.732 345.633 234.378 345.295C234.029 344.952 233.571 344.78 233.006 344.78C232.408 344.78 231.93 344.961 231.572 345.323C231.213 345.684 231.031 346.185 231.027 346.825L229.751 346.693C229.839 345.733 230.167 345.003 230.737 344.502C231.307 343.997 232.073 343.744 233.033 343.744C234.003 343.744 234.771 344.015 235.337 344.558C235.902 345.1 236.185 345.772 236.185 346.574C236.185 346.982 236.102 347.383 235.936 347.777C235.771 348.171 235.495 348.586 235.109 349.022C234.727 349.458 234.091 350.056 233.199 350.816C232.454 351.447 231.976 351.875 231.765 352.103C231.553 352.325 231.379 352.55 231.241 352.777H236.198Z" fill="white"/>
<path d="M237.619 345.121V343.918H244.163V344.892C243.519 345.582 242.88 346.5 242.246 347.645C241.616 348.79 241.129 349.968 240.784 351.178C240.536 352.031 240.377 352.965 240.308 353.98H239.032C239.046 353.178 239.203 352.209 239.501 351.073C239.8 349.938 240.228 348.844 240.784 347.791C241.345 346.734 241.94 345.844 242.57 345.121H237.619Z" fill="white"/>
<path d="M280.133 352.777V353.98H273.451C273.442 353.679 273.49 353.389 273.596 353.111C273.766 352.652 274.037 352.2 274.41 351.755C274.787 351.31 275.329 350.795 276.037 350.211C277.136 349.303 277.878 348.584 278.264 348.056C278.65 347.522 278.844 347.019 278.844 346.547C278.844 346.05 278.667 345.633 278.313 345.295C277.963 344.952 277.506 344.78 276.94 344.78C276.343 344.78 275.865 344.961 275.506 345.323C275.148 345.684 274.966 346.185 274.961 346.825L273.686 346.693C273.773 345.733 274.102 345.003 274.672 344.502C275.242 343.997 276.007 343.744 276.968 343.744C277.938 343.744 278.706 344.015 279.271 344.558C279.837 345.1 280.119 345.772 280.119 346.574C280.119 346.982 280.036 347.383 279.871 347.777C279.706 348.171 279.43 348.586 279.044 349.022C278.662 349.458 278.025 350.056 277.133 350.816C276.389 351.447 275.911 351.875 275.699 352.103C275.488 352.325 275.313 352.55 275.175 352.777H280.133Z" fill="white"/>
<path d="M283.381 348.452C282.866 348.262 282.484 347.991 282.236 347.638C281.988 347.286 281.864 346.864 281.864 346.373C281.864 345.631 282.128 345.007 282.657 344.502C283.185 343.997 283.889 343.744 284.767 343.744C285.649 343.744 286.36 344.004 286.897 344.523C287.435 345.038 287.704 345.666 287.704 346.407C287.704 346.88 287.58 347.293 287.332 347.645C287.088 347.993 286.716 348.262 286.215 348.452C286.835 348.656 287.307 348.985 287.628 349.439C287.955 349.894 288.118 350.436 288.118 351.067C288.118 351.938 287.812 352.671 287.201 353.264C286.589 353.857 285.785 354.154 284.787 354.154C283.79 354.154 282.985 353.857 282.374 353.264C281.763 352.666 281.457 351.922 281.457 351.032C281.457 350.369 281.622 349.815 281.953 349.37C282.289 348.92 282.765 348.614 283.381 348.452ZM283.133 346.331C283.133 346.813 283.287 347.207 283.595 347.513C283.903 347.819 284.302 347.972 284.794 347.972C285.272 347.972 285.663 347.821 285.967 347.52C286.275 347.214 286.429 346.841 286.429 346.401C286.429 345.942 286.27 345.557 285.953 345.246C285.64 344.931 285.249 344.773 284.781 344.773C284.307 344.773 283.914 344.926 283.601 345.232C283.289 345.538 283.133 345.904 283.133 346.331ZM282.733 351.039C282.733 351.396 282.815 351.741 282.981 352.075C283.151 352.409 283.401 352.668 283.732 352.854C284.063 353.034 284.42 353.125 284.801 353.125C285.394 353.125 285.884 352.932 286.27 352.548C286.656 352.163 286.849 351.674 286.849 351.08C286.849 350.478 286.649 349.979 286.249 349.585C285.854 349.191 285.358 348.994 284.76 348.994C284.176 348.994 283.691 349.189 283.305 349.578C282.923 349.968 282.733 350.455 282.733 351.039Z" fill="white"/>
<path d="M324.068 352.777V353.98H317.386C317.377 353.679 317.425 353.389 317.531 353.111C317.701 352.652 317.972 352.2 318.344 351.755C318.721 351.31 319.264 350.795 319.972 350.211C321.07 349.303 321.813 348.584 322.199 348.056C322.585 347.522 322.778 347.019 322.778 346.547C322.778 346.05 322.601 345.633 322.247 345.295C321.898 344.952 321.44 344.78 320.875 344.78C320.277 344.78 319.799 344.961 319.441 345.323C319.082 345.684 318.901 346.185 318.896 346.825L317.62 346.693C317.708 345.733 318.036 345.003 318.606 344.502C319.176 343.997 319.942 343.744 320.903 343.744C321.873 343.744 322.64 344.015 323.206 344.558C323.771 345.1 324.054 345.772 324.054 346.574C324.054 346.982 323.971 347.383 323.806 347.777C323.64 348.171 323.364 348.586 322.978 349.022C322.597 349.458 321.96 350.056 321.068 350.816C320.323 351.447 319.845 351.875 319.634 352.103C319.422 352.325 319.248 352.55 319.11 352.777H324.068Z" fill="white"/>
<path d="M325.591 351.623L326.784 351.512C326.886 352.077 327.079 352.487 327.364 352.742C327.649 352.997 328.014 353.125 328.46 353.125C328.842 353.125 329.175 353.037 329.46 352.861C329.749 352.684 329.986 352.45 330.17 352.158C330.354 351.862 330.508 351.463 330.632 350.962C330.756 350.462 330.818 349.952 330.818 349.432C330.818 349.377 330.816 349.293 330.811 349.182C330.563 349.581 330.223 349.905 329.791 350.156C329.363 350.401 328.899 350.524 328.398 350.524C327.561 350.524 326.853 350.218 326.274 349.606C325.695 348.994 325.405 348.188 325.405 347.186C325.405 346.152 325.706 345.32 326.309 344.69C326.915 344.059 327.674 343.744 328.584 343.744C329.242 343.744 329.841 343.923 330.384 344.28C330.931 344.637 331.345 345.146 331.625 345.809C331.91 346.468 332.053 347.423 332.053 348.674C332.053 349.977 331.912 351.016 331.632 351.79C331.352 352.559 330.933 353.146 330.377 353.549C329.825 353.952 329.177 354.154 328.432 354.154C327.642 354.154 326.996 353.934 326.495 353.493C325.994 353.048 325.693 352.425 325.591 351.623ZM330.673 347.124C330.673 346.405 330.483 345.835 330.101 345.413C329.724 344.991 329.269 344.78 328.736 344.78C328.184 344.78 327.704 345.007 327.295 345.462C326.886 345.916 326.681 346.505 326.681 347.228C326.681 347.877 326.874 348.406 327.26 348.813C327.651 349.217 328.131 349.418 328.701 349.418C329.276 349.418 329.747 349.217 330.115 348.813C330.487 348.406 330.673 347.842 330.673 347.124Z" fill="white"/>
<path d="M53.9424 392.431L55.1836 392.264C55.3261 392.974 55.5674 393.486 55.9076 393.801C56.2524 394.112 56.6707 394.267 57.1626 394.267C57.7464 394.267 58.2383 394.063 58.6382 393.655C59.0427 393.247 59.245 392.742 59.245 392.139C59.245 391.564 59.0588 391.091 58.6865 390.72C58.3141 390.345 57.8406 390.157 57.266 390.157C57.0316 390.157 56.7397 390.204 56.3903 390.296L56.5282 389.198C56.6109 389.207 56.6776 389.212 56.7282 389.212C57.2568 389.212 57.7326 389.072 58.1555 388.794C58.5784 388.516 58.7899 388.087 58.7899 387.508C58.7899 387.049 58.6359 386.669 58.3279 386.367C58.0199 386.066 57.6223 385.915 57.135 385.915C56.6523 385.915 56.2501 386.068 55.9283 386.374C55.6065 386.68 55.3996 387.139 55.3077 387.751L54.0665 387.529C54.2182 386.69 54.563 386.041 55.1008 385.582C55.6387 385.118 56.3075 384.886 57.1074 384.886C57.659 384.886 58.167 385.007 58.6313 385.248C59.0956 385.484 59.4496 385.809 59.6932 386.221C59.9415 386.634 60.0656 387.072 60.0656 387.536C60.0656 387.976 59.9483 388.377 59.7139 388.739C59.4795 389.1 59.1324 389.388 58.6727 389.601C59.2703 389.74 59.7346 390.03 60.0656 390.47C60.3966 390.906 60.562 391.453 60.562 392.111C60.562 393.001 60.2403 393.757 59.5967 394.378C58.9531 394.995 58.1394 395.303 57.1557 395.303C56.2685 395.303 55.5306 395.036 54.9422 394.503C54.3584 393.97 54.0251 393.279 53.9424 392.431Z" fill="white"/>
<path d="M61.7963 390.095C61.7963 388.889 61.9182 387.92 62.1618 387.188C62.41 386.451 62.7755 385.883 63.2582 385.484C63.7455 385.086 64.3569 384.886 65.0924 384.886C65.6348 384.886 66.1106 384.997 66.5197 385.22C66.9289 385.438 67.2668 385.755 67.5334 386.173C67.8 386.585 68.0092 387.091 68.1609 387.689C68.3126 388.282 68.3884 389.084 68.3884 390.095C68.3884 391.291 68.2666 392.257 68.023 392.994C67.7793 393.727 67.4139 394.295 66.9266 394.698C66.4439 395.097 65.8325 395.296 65.0924 395.296C64.1178 395.296 63.3524 394.944 62.7962 394.239C62.1296 393.391 61.7963 392.009 61.7963 390.095ZM63.072 390.095C63.072 391.768 63.2651 392.883 63.6512 393.439C64.042 393.991 64.5224 394.267 65.0924 394.267C65.6624 394.267 66.1405 393.989 66.5266 393.432C66.9174 392.876 67.1128 391.764 67.1128 390.095C67.1128 388.416 66.9174 387.302 66.5266 386.75C66.1405 386.198 65.6578 385.922 65.0786 385.922C64.5086 385.922 64.0535 386.166 63.7133 386.653C63.2858 387.274 63.072 388.421 63.072 390.095Z" fill="white"/>
<path d="M106.468 395.122H105.227V387.146C104.928 387.434 104.535 387.721 104.047 388.008C103.565 388.296 103.13 388.511 102.744 388.655V387.445C103.438 387.116 104.045 386.717 104.565 386.249C105.084 385.781 105.452 385.327 105.668 384.886H106.468V395.122Z" fill="#88878C"/>
<path d="M152.251 393.919V395.122H145.569C145.56 394.821 145.609 394.531 145.714 394.253C145.884 393.794 146.156 393.342 146.528 392.897C146.905 392.452 147.447 391.937 148.155 391.353C149.254 390.445 149.996 389.726 150.383 389.198C150.769 388.664 150.962 388.161 150.962 387.689C150.962 387.193 150.785 386.775 150.431 386.437C150.081 386.094 149.624 385.922 149.059 385.922C148.461 385.922 147.983 386.103 147.624 386.465C147.266 386.826 147.084 387.327 147.08 387.967L145.804 387.835C145.891 386.875 146.22 386.145 146.79 385.644C147.36 385.139 148.125 384.886 149.086 384.886C150.056 384.886 150.824 385.157 151.389 385.7C151.955 386.242 152.237 386.914 152.237 387.716C152.237 388.124 152.155 388.525 151.989 388.919C151.824 389.313 151.548 389.728 151.162 390.164C150.78 390.6 150.143 391.198 149.252 391.958C148.507 392.589 148.029 393.018 147.817 393.245C147.606 393.467 147.431 393.692 147.293 393.919H152.251Z" fill="#88878C"/>
<path d="M189.67 392.431L190.911 392.264C191.054 392.974 191.295 393.486 191.635 393.801C191.98 394.112 192.398 394.267 192.89 394.267C193.474 394.267 193.966 394.063 194.366 393.655C194.77 393.247 194.973 392.742 194.973 392.139C194.973 391.564 194.786 391.091 194.414 390.72C194.042 390.345 193.568 390.157 192.994 390.157C192.759 390.157 192.467 390.204 192.118 390.296L192.256 389.198C192.338 389.207 192.405 389.212 192.456 389.212C192.984 389.212 193.46 389.072 193.883 388.794C194.306 388.516 194.517 388.087 194.517 387.508C194.517 387.049 194.363 386.669 194.055 386.367C193.747 386.066 193.35 385.915 192.863 385.915C192.38 385.915 191.978 386.068 191.656 386.374C191.334 386.68 191.127 387.139 191.035 387.751L189.794 387.529C189.946 386.69 190.291 386.041 190.828 385.582C191.366 385.118 192.035 384.886 192.835 384.886C193.387 384.886 193.895 385.007 194.359 385.248C194.823 385.484 195.177 385.809 195.421 386.221C195.669 386.634 195.793 387.072 195.793 387.536C195.793 387.976 195.676 388.377 195.441 388.739C195.207 389.1 194.86 389.388 194.4 389.601C194.998 389.74 195.462 390.03 195.793 390.47C196.124 390.906 196.29 391.453 196.29 392.111C196.29 393.001 195.968 393.757 195.324 394.378C194.681 394.995 193.867 395.303 192.883 395.303C191.996 395.303 191.258 395.036 190.67 394.503C190.086 393.97 189.753 393.279 189.67 392.431Z" fill="#88878C"/>
<path d="M237.577 395.123V392.682H233.191V391.534L237.804 384.928H238.818V391.534H240.183V392.682H238.818V395.123H237.577ZM237.577 391.534V386.938L234.412 391.534H237.577Z" fill="#88878C"/>
<path d="M277.533 392.452L278.836 392.341C278.933 392.98 279.156 393.462 279.505 393.787C279.859 394.107 280.285 394.267 280.781 394.267C281.379 394.267 281.884 394.04 282.298 393.585C282.712 393.131 282.919 392.528 282.919 391.777C282.919 391.063 282.719 390.5 282.319 390.088C281.923 389.675 281.404 389.469 280.76 389.469C280.36 389.469 279.999 389.561 279.678 389.747C279.356 389.928 279.103 390.164 278.919 390.456L277.754 390.303L278.733 385.067H283.76V386.263H279.726L279.181 389.003C279.788 388.576 280.425 388.363 281.091 388.363C281.974 388.363 282.719 388.671 283.325 389.288C283.932 389.904 284.236 390.697 284.236 391.666C284.236 392.589 283.969 393.386 283.436 394.058C282.788 394.883 281.903 395.296 280.781 395.296C279.862 395.296 279.11 395.036 278.526 394.517C277.947 393.998 277.616 393.309 277.533 392.452Z" fill="#88878C"/>
<path d="M327.909 387.424L326.674 387.522C326.564 387.03 326.408 386.673 326.205 386.451C325.87 386.094 325.456 385.915 324.964 385.915C324.569 385.915 324.222 386.027 323.923 386.249C323.532 386.537 323.224 386.956 322.999 387.508C322.774 388.059 322.657 388.845 322.647 389.865C322.946 389.406 323.312 389.065 323.744 388.843C324.176 388.62 324.629 388.509 325.102 388.509C325.93 388.509 326.633 388.817 327.212 389.434C327.796 390.046 328.088 390.839 328.088 391.812C328.088 392.452 327.95 393.048 327.674 393.599C327.403 394.146 327.028 394.566 326.55 394.858C326.072 395.15 325.53 395.296 324.923 395.296C323.889 395.296 323.045 394.914 322.392 394.149C321.739 393.379 321.413 392.114 321.413 390.352C321.413 388.382 321.774 386.949 322.496 386.054C323.125 385.276 323.974 384.886 325.04 384.886C325.835 384.886 326.486 385.111 326.992 385.561C327.502 386.01 327.807 386.632 327.909 387.424ZM322.84 391.819C322.84 392.25 322.93 392.663 323.109 393.057C323.293 393.451 323.548 393.752 323.875 393.961C324.201 394.165 324.544 394.267 324.902 394.267C325.426 394.267 325.877 394.054 326.254 393.627C326.631 393.201 326.819 392.621 326.819 391.889C326.819 391.184 326.633 390.63 326.261 390.227C325.888 389.819 325.419 389.615 324.854 389.615C324.293 389.615 323.817 389.819 323.427 390.227C323.036 390.63 322.84 391.161 322.84 391.819Z" fill="#88878C"/>
</g>
<circle cx="104.5" cy="225.5" r="15.5" stroke="#D1FF4E" stroke-width="4"/>
<defs>
<filter id="filter0_d" x="2" y="4" width="390" height="464" filterUnits="userSpaceOnUse" color-interpolation-filters="sRGB">
<feFlood flood-opacity="0" result="BackgroundImageFix"/>
<feColorMatrix in="SourceAlpha" type="matrix" values="0 0 0 0 0 0 0 0 0 0 0 0 0 0 0 0 0 0 127 0"/>
<feOffset dx="2" dy="4"/>
<feGaussianBlur stdDeviation="2"/>
<feColorMatrix type="matrix" values="0 0 0 0 0 0 0 0 0 0 0 0 0 0 0 0 0 0 0.25 0"/>
<feBlend mode="normal" in2="BackgroundImageFix" result="effect1_dropShadow"/>
<feBlend mode="normal" in="SourceGraphic" in2="effect1_dropShadow" result="shape"/>
</filter>
<filter id="filter1_d" x="0" y="0" width="390" height="464" filterUnits="userSpaceOnUse" color-interpolation-filters="sRGB">
<feFlood flood-opacity="0" result="BackgroundImageFix"/>
<feColorMatrix in="SourceAlpha" type="matrix" values="0 0 0 0 0 0 0 0 0 0 0 0 0 0 0 0 0 0 127 0"/>
<feOffset/>
<feGaussianBlur stdDeviation="2"/>
<feColorMatrix type="matrix" values="0 0 0 0 0.212153 0 0 0 0 0.252389 0 0 0 0 0.391667 0 0 0 0.3 0"/>
<feBlend mode="normal" in2="BackgroundImageFix" result="effect1_dropShadow"/>
<feBlend mode="normal" in="SourceGraphic" in2="effect1_dropShadow" result="shape"/>
</filter>
</defs>
</svg>
