<svg width="51" height="51" viewBox="0 0 51 51" fill="none" xmlns="http://www.w3.org/2000/svg">
<rect x="2" y="2" width="47" height="47" rx="23.5" stroke="#D1FF4E" stroke-width="4"/>
<path d="M23.0664 29.7617C23.0664 28.668 23.1992 27.7969 23.4648 27.1484C23.7305 26.5 24.2148 25.8633 24.918 25.2383C25.6289 24.6055 26.1016 24.0938 26.3359 23.7031C26.5703 23.3047 26.6875 22.8867 26.6875 22.4492C26.6875 21.1289 26.0781 20.4688 24.8594 20.4688C24.2812 20.4688 23.8164 20.6484 23.4648 21.0078C23.1211 21.3594 22.9414 21.8477 22.9258 22.4727H19.5273C19.543 20.9805 20.0234 19.8125 20.9688 18.9688C21.9219 18.125 23.2188 17.7031 24.8594 17.7031C26.5156 17.7031 27.8008 18.1055 28.7148 18.9102C29.6289 19.707 30.0859 20.8359 30.0859 22.2969C30.0859 22.9609 29.9375 23.5898 29.6406 24.1836C29.3438 24.7695 28.8242 25.4219 28.082 26.1406L27.1328 27.043C26.5391 27.6133 26.1992 28.2812 26.1133 29.0469L26.0664 29.7617H23.0664ZM22.7266 33.3594C22.7266 32.8359 22.9023 32.4062 23.2539 32.0703C23.6133 31.7266 24.0703 31.5547 24.625 31.5547C25.1797 31.5547 25.6328 31.7266 25.9844 32.0703C26.3438 32.4062 26.5234 32.8359 26.5234 33.3594C26.5234 33.875 26.3477 34.3008 25.9961 34.6367C25.6523 34.9727 25.1953 35.1406 24.625 35.1406C24.0547 35.1406 23.5938 34.9727 23.2422 34.6367C22.8984 34.3008 22.7266 33.875 22.7266 33.3594Z" fill="#D1FF4E"/>
</svg>
