<svg width="125" height="273" viewBox="0 0 125 273" fill="none" xmlns="http://www.w3.org/2000/svg">
<path d="M83.9354 90.3759C87.7268 78.812 97.4897 59.0333 91.771 55.621C84.3777 51.1029 63.0192 48.3225 63.0192 48.3225V48.7017C63.0192 48.7017 41.4712 50.471 34.0463 55.0207C28.5172 58.3382 38.2485 79.0016 41.9768 90.6602C42.8614 93.4406 42.7666 105.858 42.3875 116.884C41.3924 123.639 40.7491 130.442 40.4602 137.263C40.4602 138.78 57.9956 148.353 62.8613 148.606V148.259C67.7585 148.006 85.2308 138.496 85.3255 136.947C85.7047 131.797 83.5246 119.286 83.4614 116.568C83.1139 105.542 83.0507 93.1247 83.9354 90.3759Z" fill="#FFBD95"/>
<path d="M71.9614 44.8787C71.4559 42.6986 70.2553 31.8298 70.2553 31.8298H63.0516V32.209H55.8478C55.8478 32.209 54.6156 43.1094 54.1101 45.2894C53.6046 47.4695 47.791 50.8186 47.791 50.8186H63.1463V50.5659H78.5017C78.5017 50.5659 72.4354 47.0904 71.9614 44.8787Z" fill="#FFBD95"/>
<path d="M71.4559 41.814C71.0136 38.4965 70.4765 33.7572 70.3185 32.3354L69.8445 31.8931H63.0516V32.2722H55.8478C55.8478 32.2722 54.6156 43.1726 54.1101 45.3527C53.6046 47.5328 47.791 50.8819 47.791 50.8819H48.5177L63.1147 46.9956C66.0599 45.525 68.8904 43.8352 71.5823 41.9404L71.4559 41.814Z" fill="#FFA47C"/>
<path d="M51.4244 125.131C42.6409 125.131 39.197 131.229 39.4182 150.06C39.6393 168.89 42.3881 189.269 43.6203 192.208C44.8526 195.146 57.3011 195.367 58.5333 193.503C59.7656 191.639 62.8619 152.777 62.8619 146.647C62.8619 140.518 60.9978 125.194 51.4244 125.131Z" fill="#FFBD95"/>
<path d="M52.4944 186.754L50.1572 186.694C46.6509 186.604 43.7357 189.374 43.6457 192.88L43.4447 200.713C43.3547 204.219 46.1241 207.135 49.6303 207.225L51.9676 207.285C55.4738 207.375 58.3891 204.605 58.4791 201.099L58.6801 193.266C58.7701 189.76 56.0007 186.844 52.4944 186.754Z" fill="#FFBD95"/>
<path d="M50.6344 195.905C47.9488 195.905 41.3453 196.789 41.6929 214.325C42.0404 231.86 49.4653 255.904 49.4653 255.904H55.7844C55.7844 255.904 58.9439 223.424 58.9439 217.2C59.1019 202.887 59.1967 195.905 50.6344 195.905Z" fill="#FFBD95"/>
<path d="M74.6478 125.289C83.3681 124.341 87.2859 130.091 89.15 148.827C91.0141 167.563 90.1927 188.164 89.15 191.197C88.1074 194.23 75.8484 195.62 74.4582 194.04C73.068 192.461 65.9275 153.946 65.2955 147.88C64.6636 141.813 65.106 126.395 74.6478 125.289Z" fill="#FFBD95"/>
<path d="M84.8327 206.778L82.5453 207.074C80.8832 207.289 79.2038 206.835 77.8765 205.812C76.5492 204.789 75.6828 203.28 75.4678 201.618L74.4546 193.784C74.2396 192.122 74.6937 190.443 75.7169 189.116C76.7402 187.788 78.2488 186.922 79.9109 186.707L82.2296 186.407C83.8917 186.192 85.5711 186.646 86.8983 187.669C88.2256 188.693 89.0921 190.201 89.307 191.863L90.3203 199.697C90.5353 201.359 90.0812 203.038 89.0579 204.366C88.0347 205.693 86.5261 206.559 84.864 206.774L84.8327 206.778Z" fill="#FFBD95"/>
<path d="M82.6088 195.462C85.2944 195.178 91.9295 195.462 93.4144 212.871C94.8994 230.28 89.9705 255.019 89.9705 255.019L83.6515 255.683C83.6515 255.683 77.1744 223.708 76.5109 217.516C74.9944 203.424 74.1729 196.347 82.6088 195.462Z" fill="#FFBD95"/>
<path d="M41.8826 121.339C40.2318 129.273 38.9979 137.289 38.186 145.352C37.6805 153.788 41.7563 190.628 41.7879 194.704C41.8194 198.779 41.5035 211.196 41.7879 223.424C42.0722 235.651 45.137 259.695 45.137 259.695L60.9346 259.348C60.9346 259.348 60.9346 207.689 60.9346 199.569C60.9346 191.449 62.8619 148.511 62.8619 148.511V121.94L41.8826 121.339Z" fill="#00233F"/>
<path d="M93.637 55.8104C92.6891 54.1991 87.5075 52.8721 82.705 51.3871C80.0896 50.5305 77.544 49.4742 75.0905 48.2275L72.4365 49.6493C69.5546 51.3132 66.2856 52.1891 62.9579 52.1891C59.6302 52.1891 56.3612 51.3132 53.4793 49.6493L51.2044 48.3539C51.2044 48.3539 47.413 49.9969 43.1792 51.2923C38.4083 52.7773 33.0687 54.0095 32.2472 55.684C31.4258 57.3586 39.9249 90.4389 40.9044 93.0929C41.8838 95.7469 39.3562 115.462 41.789 121.308L62.7683 122.003L83.7476 121.402C85.6749 114.672 83.7476 95.5889 84.6955 92.9665C85.6433 90.3441 95.2799 58.496 93.637 55.8104Z" fill="#CEE0FF"/>
<path d="M83.7147 120.928C86.1707 128.619 88.2167 136.434 89.8442 144.341C91.2344 152.682 90.95 189.743 91.3608 193.787C91.7715 197.831 93.3513 210.185 94.3623 222.223C95.3734 234.261 94.8679 258.81 94.8679 258.81L79.0702 260.043C79.0702 260.043 73.699 208.669 72.7511 200.612C71.8033 192.555 62.6406 150.059 62.6406 150.059V122.129L83.7147 120.928Z" fill="#00233F"/>
<path d="M46.7166 259.601C46.7166 259.601 41.377 265.92 41.6614 267.499C42.209 268.795 43.1093 269.912 44.2598 270.722C45.4104 271.532 46.7651 272.002 48.17 272.081C51.3295 272.27 56.3532 269.427 57.1431 269.363C58.9756 269.174 58.9756 259.316 58.9756 259.316L46.7166 259.601Z" fill="#191919"/>
<path d="M92.5301 259.095C92.5301 259.095 98.5016 264.75 98.3753 266.425C97.9735 267.784 97.1974 269.002 96.1359 269.941C95.0743 270.879 93.77 271.5 92.3721 271.733C89.2332 271.608 86.1321 271 83.1779 269.932C81.3138 269.932 80.3027 260.137 80.3027 260.137L92.5301 259.095Z" fill="#191919"/>
<path d="M81.8831 152.524C82.7678 158.053 83.7789 195.146 83.9052 197.263C84.0316 199.38 89.3396 256.567 89.5924 259.095L94.8688 258.811C94.8688 258.811 95.5639 234.545 94.5213 222.381C93.4786 210.217 91.9305 197.832 91.5197 193.945C91.109 190.059 91.5197 152.872 90.0031 144.499C88.3757 136.592 86.3296 128.777 83.8736 121.087L71.4883 121.94C71.4883 121.94 80.9985 146.995 81.8831 152.524Z" fill="#002D56"/>
<path d="M60.4297 138.337C59.8009 137.223 58.831 136.341 57.6628 135.82C56.4947 135.298 55.1901 135.166 53.941 135.442C52.692 135.718 51.5646 136.388 50.7248 137.353C49.8851 138.318 49.3774 139.527 49.2765 140.802C48.736 145.103 48.736 149.455 49.2765 153.756C50.6035 160.738 52.436 194.83 52.2465 195.746C52.0569 196.662 52.2465 259.316 52.2465 259.316L52.5308 259.474L60.9668 259.284C60.9668 259.284 60.9668 207.626 60.9668 199.506C60.9668 191.386 62.8625 148.511 62.8625 148.511V146.299L63.0521 142.95L60.4297 138.337Z" fill="#002D56"/>
<path d="M75.5321 22.5726C75.5321 31.672 68.6443 40.7083 62.894 40.7083C57.1436 40.7083 50.2559 31.6405 50.2559 22.541C50.2559 13.4415 55.9746 6.07983 62.894 6.11143C69.8134 6.14302 75.5637 13.4731 75.5321 22.5726Z" fill="#FFBD95"/>
<path d="M50.1299 24.3734C48.8831 22.2036 48.1785 19.7649 48.0762 17.2645C48.9526 14.738 50.0965 12.3125 51.4885 10.0292C53.9567 7.9846 56.7858 6.42003 59.8296 5.41624C61.7186 5.19036 63.6278 5.19036 65.5168 5.41624C68.0158 5.74469 70.3197 6.94138 72.0254 8.79694C72.8469 10.4715 74.869 12.3672 75.5325 13.6626C76.3692 15.3317 76.9345 17.1235 77.2071 18.9706C77.0175 19.4762 76.1328 23.5835 76.038 23.9311C75.8378 24.3689 75.6055 24.7914 75.3429 25.1949C75.3429 25.1949 71.9306 16.5062 71.8674 15.7163C71.8043 14.9264 54.4584 14.6105 53.3842 15.1792C52.3099 15.7479 50.1299 24.3734 50.1299 24.3734Z" fill="#8D3B26"/>
<path d="M38.5023 55.5264C41.9462 58.212 41.0299 65.2894 35.7535 71.4821C30.4771 77.6748 26.2749 81.3082 24.7583 82.8564C23.2417 84.4046 15.5325 94.5151 13.0364 96.8531C10.5404 99.1912 5.86431 100.771 3.24189 98.4961C0.619482 96.2212 -1.4974 94.7994 1.37777 89.7126C4.25294 84.6257 27.6651 46.9957 38.5023 55.5264Z" fill="#00233F"/>
<path d="M50.1297 48.291L62.9258 65.2577V133.946H40.114C39.6769 133.947 39.2443 133.858 38.8435 133.684C38.4427 133.509 38.0825 133.254 37.7855 132.933C37.4886 132.612 37.2614 132.233 37.1183 131.82C36.9753 131.407 36.9195 130.969 36.9545 130.534C37.4284 120.897 38.7554 93.8199 38.2499 90.6287C37.618 86.6793 34.3952 74.5783 34.3952 74.5783C34.3952 74.5783 30.8566 57.8644 32.1204 55.3684C33.3842 52.8723 50.1297 48.291 50.1297 48.291Z" fill="#00233F"/>
<path d="M75.5327 48.291L62.8945 66.9639V133.946H85.8327C86.2698 133.947 86.7024 133.858 87.1032 133.684C87.504 133.509 87.8643 133.254 88.1612 132.933C88.4582 132.612 88.6853 132.233 88.8284 131.82C88.9714 131.407 89.0272 130.969 88.9923 130.534C88.4867 120.897 87.1913 93.8199 87.6969 90.6287C88.2972 86.6793 91.7095 74.5783 91.7095 74.5783C91.7095 74.5783 95.8801 58.3699 94.5846 55.9055C93.2892 53.4411 75.5327 48.291 75.5327 48.291Z" fill="#002D56"/>
<path d="M63.0511 66.964C61.3077 63.9134 58.8041 61.3663 55.7841 59.5707C53.8347 58.5402 51.7653 57.7548 49.623 57.2326L50.1286 48.2911L53.7936 46.0479C53.7936 46.0479 52.2455 47.8172 53.0669 48.8598C54.9943 51.3559 56.2265 53.5044 59.6388 58.0225C61.7574 60.5297 62.9607 63.6827 63.0511 66.964Z" fill="#D1FF4E"/>
<path d="M55.0905 161.434H38.1554L37.6814 160.612L36.4492 160.075L38.1238 135.842L53.8266 135.431L55.0905 161.434Z" fill="#FF8626"/>
<path d="M53.4159 160.075H36.4492L37.3655 135.399H53.4159V160.075Z" fill="#002D56"/>
<path d="M38.1556 161.434L37.6816 160.612H53.9532L53.8269 135.431L55.0907 161.434H38.1556Z" fill="#BF5900"/>
<path d="M87.6328 91.4187L66.9062 93.8515V94.8626L87.6012 93.1564L87.6328 91.4187Z" fill="#BF5900"/>
<path d="M74.5529 161.56L91.4248 159.886L91.8039 159.032L92.9729 158.369L88.9603 134.42L73.2891 135.557L74.5529 161.56Z" fill="#FF8626"/>
<path d="M76.1005 160.044L92.9724 158.369L89.6549 133.915L73.6992 135.463L76.1005 160.044Z" fill="#002D56"/>
<path d="M91.4248 159.886L91.8039 159.032L75.5955 160.644L73.2891 135.557L74.5529 161.56L91.4248 159.886Z" fill="#BF5900"/>
<path d="M68.1377 103.425C68.3273 112.588 79.0697 120.076 88.5483 120.076L89.0222 130.629C89.0572 131.064 89.0014 131.502 88.8583 131.915C88.7153 132.328 88.4881 132.707 88.1912 133.028C87.8942 133.349 87.534 133.604 87.1332 133.779C86.7324 133.953 86.2998 134.042 85.8627 134.041H63.9355V103.425H68.1377Z" fill="#0E3660"/>
<path d="M62.7993 133.946H62.041V68.5749L62.7993 67.5955V133.946Z" fill="#D1FF4E"/>
<path d="M67.0642 60.5183L62.7988 65.0048V133.946H67.0642V60.5183Z" fill="#1C436D"/>
<path d="M49.6241 57.3274L42.1992 60.5185L47.9496 48.923L53.7315 46.0479L50.7931 48.2911L49.6241 57.3274Z" fill="#1C4368"/>
<path d="M62.1672 69.523C62.1672 67.6273 67.6963 61.5926 70.3819 60.2024C72.31 59.1784 74.3738 58.4337 76.5114 57.9907L75.532 48.1646L71.9617 44.8787C71.9617 44.8787 73.6047 48.0382 71.9617 49.9023C69.6901 52.5976 67.58 55.4251 65.6426 58.3699C61.0929 65.1945 62.1672 70.85 62.1672 69.523Z" fill="#D1FF4E"/>
<path d="M76.5107 58.1171L83.9356 61.3398L77.111 48.0066L71.9609 44.8787L74.7729 48.1962L76.5107 58.1171Z" fill="#1C5C92"/>
<path d="M40.8086 67.5955H56.7958V82.1609C56.7958 82.9989 56.4629 83.8025 55.8704 84.395C55.2779 84.9876 54.4743 85.3204 53.6363 85.3204H44.1577C43.3197 85.3204 42.5161 84.9876 41.9236 84.395C41.331 83.8025 40.9982 82.9989 40.9982 82.1609V67.5955H40.8086Z" fill="#1C436D"/>
<path d="M70.3809 67.4695H86.3681V81.8769C86.3681 82.7149 86.0352 83.5185 85.4427 84.1111C84.8502 84.7036 84.0465 85.0365 83.2086 85.0365H73.73C72.892 85.0365 72.0884 84.7036 71.4958 84.1111C70.9033 83.5185 70.5704 82.7149 70.5704 81.8769V67.4695H70.3809Z" fill="#1C436D"/>
<path d="M51.9617 72.4295H45.6427C44.3606 72.4295 43.131 71.9202 42.2245 71.0137C41.3179 70.1071 40.8086 68.8775 40.8086 67.5955H56.9538C56.9541 68.2438 56.8241 68.8856 56.5713 69.4826C56.3186 70.0797 55.9483 70.6198 55.4825 71.0708C55.0168 71.5218 54.4651 71.8745 53.8602 72.1079C53.2554 72.3414 52.6097 72.4507 51.9617 72.4295Z" fill="#D1FF4E"/>
<path d="M52.0895 71.4187H45.5177C44.5259 71.4187 43.5744 71.0269 42.8702 70.3286C42.1659 69.6303 41.7661 68.6821 41.7578 67.6904H55.8493C55.8493 68.1827 55.7519 68.6701 55.5625 69.1245C55.3732 69.5789 55.0958 69.9913 54.7462 70.3379C54.3966 70.6846 53.9819 70.9585 53.5259 71.144C53.0699 71.3295 52.5817 71.4228 52.0895 71.4187Z" fill="#1C436D"/>
<path d="M81.5029 72.4295H75.1838C74.5478 72.4337 73.9173 72.3116 73.3289 72.0701C72.7405 71.8287 72.206 71.4728 71.7562 71.023C71.3065 70.5733 70.9506 70.0387 70.7091 69.4503C70.4677 68.8619 70.3455 68.2315 70.3497 67.5955H86.3369C86.3369 68.8775 85.8276 70.1071 84.9211 71.0137C84.0145 71.9202 82.7849 72.4295 81.5029 72.4295Z" fill="#D1FF4E"/>
<path d="M81.6617 71.4187H75.0899C74.5977 71.4228 74.1095 71.3295 73.6535 71.144C73.1975 70.9585 72.7828 70.6846 72.4332 70.3379C72.0837 69.9913 71.8062 69.5789 71.6169 69.1245C71.4275 68.6701 71.3301 68.1827 71.3301 67.6904H85.39C85.39 68.6792 84.9972 69.6275 84.298 70.3267C83.5988 71.0259 82.6505 71.4187 81.6617 71.4187Z" fill="#1C436D"/>
<path d="M38.2188 91.4187L62.0416 93.8515V94.8626L38.2819 93.1564L38.2188 91.4187Z" fill="#D1FF4E"/>
<path d="M57.8387 103.425C57.6175 112.588 47.0331 120.076 37.3649 120.076L36.891 130.629C36.856 131.064 36.9118 131.502 37.0549 131.915C37.1979 132.328 37.4251 132.707 37.7221 133.028C38.019 133.349 38.3793 133.604 38.7801 133.779C39.1808 133.953 39.6135 134.042 40.0505 134.041H61.9461V103.425H57.8387Z" fill="#002A51"/>
<path d="M7.0331 96.5056C4.41069 98.8752 3.49442 102.224 9.7503 109.965C16.0062 117.706 32.8781 133.693 32.8781 133.693L37.1434 129.839C37.1434 129.839 28.2968 111.64 25.074 107.438C21.8513 103.235 13.9525 90.2813 7.0331 96.5056Z" fill="#FFBD95"/>
<path d="M42.7049 138.18C42.7889 138.06 42.8481 137.925 42.8793 137.782C42.9104 137.639 42.9128 137.491 42.8864 137.347C42.8599 137.203 42.8051 137.065 42.7252 136.943C42.6452 136.82 42.5416 136.714 42.4205 136.632L38.5023 133.851C38.2548 133.68 37.9497 133.614 37.6536 133.667C37.3574 133.72 37.0945 133.889 36.9223 134.136C36.8384 134.256 36.7791 134.391 36.748 134.534C36.7168 134.677 36.7144 134.825 36.7409 134.969C36.7673 135.113 36.8221 135.251 36.9021 135.373C36.982 135.496 37.0856 135.602 37.2067 135.684L41.125 138.465C41.3724 138.636 41.6776 138.702 41.9737 138.649C42.2698 138.595 42.5327 138.427 42.7049 138.18Z" fill="#FFBD95"/>
<path d="M44.0624 136.569C44.1463 136.449 44.2056 136.313 44.2367 136.17C44.2678 136.027 44.2703 135.879 44.2438 135.735C44.2173 135.591 44.1625 135.454 44.0826 135.331C44.0026 135.208 43.8991 135.103 43.778 135.02L39.8281 132.24C39.7081 132.156 39.5726 132.096 39.4295 132.065C39.2864 132.034 39.1385 132.032 38.9945 132.058C38.8504 132.085 38.7131 132.139 38.5904 132.219C38.4677 132.299 38.3621 132.403 38.2797 132.524C38.1958 132.644 38.1365 132.78 38.1054 132.923C38.0742 133.066 38.0718 133.214 38.0983 133.358C38.1247 133.502 38.1795 133.639 38.2595 133.762C38.3395 133.884 38.443 133.99 38.5641 134.072L42.514 136.853C42.634 136.937 42.7695 136.996 42.9126 137.027C43.0557 137.059 43.2036 137.061 43.3476 137.035C43.4917 137.008 43.629 136.953 43.7517 136.873C43.8744 136.793 43.98 136.69 44.0624 136.569Z" fill="#FFBD95"/>
<path d="M45.328 134.926C45.4913 134.676 45.5527 134.373 45.4999 134.079C45.447 133.786 45.2838 133.523 45.0436 133.346L41.157 130.597C40.9095 130.426 40.6044 130.359 40.3083 130.413C40.0121 130.466 39.7492 130.634 39.577 130.881C39.4123 131.122 39.3467 131.418 39.3938 131.706C39.4408 131.994 39.5969 132.253 39.8298 132.43L43.7797 135.21C44.0268 135.364 44.3225 135.42 44.6089 135.368C44.8953 135.315 45.1517 135.158 45.328 134.926Z" fill="#FFBD95"/>
<path d="M46.369 133.22C46.4529 133.1 46.5122 132.964 46.5433 132.821C46.5745 132.678 46.5769 132.53 46.5504 132.386C46.524 132.242 46.4692 132.105 46.3892 131.982C46.3093 131.859 46.2057 131.754 46.0846 131.671L42.1663 128.891C41.9189 128.719 41.6137 128.653 41.3176 128.706C41.0215 128.76 40.7586 128.928 40.5864 129.175C40.5024 129.295 40.4432 129.43 40.412 129.574C40.3809 129.717 40.3785 129.864 40.4049 130.009C40.4314 130.153 40.4862 130.29 40.5661 130.413C40.6461 130.535 40.7496 130.641 40.8708 130.723L44.789 133.504C45.0365 133.675 45.3416 133.741 45.6377 133.688C45.9339 133.635 46.1968 133.466 46.369 133.22Z" fill="#FFBD95"/>
<path d="M31.6773 124.657C34.7846 125.232 37.8548 125.991 40.8715 126.932C42.8645 128.492 44.7341 130.203 46.4639 132.05C46.4639 132.05 43.7783 132.651 43.1464 133.883C42.5145 135.115 41.1559 138.464 41.1559 138.464C38.7461 137.599 36.4368 136.476 34.2681 135.115C32.999 134.083 31.8444 132.918 30.8242 131.64L31.6773 124.657Z" fill="#FFBD95"/>
<path d="M30.2873 131.451L36.86 125.605L34.806 122.035L27.791 128.639L30.2873 131.451Z" fill="#D1FF4E"/>
<path d="M1.97689 90.4393C-0.677117 92.8089 -1.18264 95.8421 4.44133 104.088C11.0968 112.753 18.4972 120.82 26.5581 128.196C26.9124 128.543 27.3888 128.738 27.8851 128.738C28.3813 128.738 28.8577 128.543 29.2121 128.196L34.4253 122.951C34.7595 122.633 34.9664 122.204 35.0071 121.745C35.0478 121.285 34.9196 120.827 34.6465 120.455C32.5928 117.548 27.6955 110.692 25.1679 107.311C21.8503 102.919 9.55977 83.6779 1.97689 90.4393Z" fill="#00233F"/>
<path d="M48.4561 13.7574C48.433 11.9111 48.7865 10.0795 49.495 8.37443C50.2035 6.66935 51.2521 5.12658 52.5768 3.84033C53.9015 2.55408 55.4744 1.55135 57.1996 0.893372C58.9248 0.235395 60.7661 -0.0640175 62.6108 0.0134186V13.7574H48.4561Z" fill="#D1FF4E"/>
<path d="M76.7957 13.7573C76.819 11.9082 76.4646 10.0739 75.7542 8.36661C75.0438 6.65932 73.9923 5.11503 72.6642 3.82833C71.3361 2.54162 69.7593 1.53958 68.0303 0.883591C66.3014 0.227599 64.4568 -0.0685378 62.6094 0.0133177V13.7573H76.7957Z" fill="#D1FF4E"/>
<path d="M48.4551 13.7573C52.8834 15.7945 57.7431 16.7166 62.6098 16.4429C67.4869 16.7192 72.3574 15.7971 76.7961 13.7573H48.4551Z" fill="#C5ED55"/>
<path d="M76.7957 13.7574C76.7957 9.61841 67.8858 10.2819 66.0533 8.48097C64.8526 7.24876 64.5683 0.0134277 64.5683 0.0134277H62.6094V13.7574H76.7957Z" fill="#C5ED55"/>
<path d="M48.4551 13.7571C48.4551 9.6181 57.365 10.2816 59.1975 8.48067C60.3981 7.24845 60.6825 0.10791 60.6825 0.10791H62.6098V13.7571H48.4551Z" fill="#A4C93B"/>
<path d="M107.159 101.94C107.696 105.447 106.306 108.638 96.5746 110.692C86.8432 112.746 63.6522 114.547 63.6522 114.547L62.7676 108.859C62.7676 108.859 81.1245 100.297 86.3377 98.9384C91.5509 97.5798 105.706 92.7458 107.159 101.94Z" fill="#FFBD95"/>
<path d="M53.2266 115.684C53.1939 115.549 53.1885 115.409 53.2107 115.272C53.2329 115.135 53.2822 115.004 53.3558 114.886C53.4293 114.768 53.5257 114.666 53.6392 114.586C53.7526 114.506 53.8809 114.45 54.0165 114.42L58.4404 113.346C58.7207 113.289 59.0122 113.342 59.2538 113.495C59.4954 113.649 59.6682 113.889 59.736 114.167C59.7687 114.302 59.7741 114.442 59.7519 114.579C59.7297 114.717 59.6804 114.848 59.6068 114.965C59.5332 115.083 59.4368 115.185 59.3234 115.265C59.2099 115.345 59.0816 115.402 58.946 115.431L54.4905 116.474C54.3556 116.507 54.2155 116.512 54.0784 116.49C53.9414 116.468 53.8102 116.419 53.6924 116.345C53.5747 116.271 53.4728 116.175 53.3928 116.062C53.3129 115.948 53.2563 115.82 53.2266 115.684Z" fill="#FFBD95"/>
<path d="M52.5625 113.757C52.5298 113.622 52.5244 113.482 52.5466 113.345C52.5688 113.208 52.6181 113.076 52.6917 112.959C52.7653 112.841 52.8616 112.739 52.9751 112.659C53.0886 112.579 53.2169 112.523 53.3525 112.493L57.808 111.418C57.9451 111.386 58.0873 111.382 58.2261 111.406C58.3649 111.43 58.4974 111.482 58.6155 111.559C58.7337 111.636 58.835 111.736 58.9134 111.853C58.9919 111.97 59.0458 112.102 59.0719 112.24C59.1046 112.375 59.11 112.515 59.0878 112.652C59.0656 112.789 59.0163 112.92 58.9427 113.038C58.8691 113.156 58.7728 113.258 58.6593 113.338C58.5458 113.418 58.4175 113.474 58.2819 113.504L53.8581 114.547C53.5815 114.613 53.2898 114.568 53.047 114.42C52.8041 114.272 52.6299 114.033 52.5625 113.757Z" fill="#FFBD95"/>
<path d="M52.0566 111.924C52.024 111.789 52.0186 111.649 52.0407 111.512C52.0629 111.375 52.1123 111.244 52.1858 111.126C52.2594 111.008 52.3558 110.907 52.4692 110.827C52.5827 110.747 52.711 110.69 52.8466 110.66L57.2705 109.618C57.4076 109.58 57.5508 109.571 57.6915 109.591C57.8322 109.611 57.9674 109.659 58.0887 109.733C58.2101 109.807 58.315 109.905 58.3971 110.021C58.4791 110.137 58.5367 110.269 58.5661 110.408C58.6244 110.684 58.5751 110.971 58.4283 111.212C58.2815 111.453 58.0481 111.629 57.7761 111.703L53.3522 112.746C53.2131 112.778 53.0689 112.783 52.9281 112.759C52.7872 112.735 52.6526 112.684 52.5319 112.607C52.4113 112.531 52.3071 112.431 52.2255 112.314C52.1439 112.196 52.0865 112.064 52.0566 111.924Z" fill="#FFBD95"/>
<path d="M51.7402 110.06C51.7076 109.925 51.7022 109.785 51.7243 109.648C51.7465 109.511 51.7959 109.38 51.8694 109.262C51.943 109.144 52.0394 109.042 52.1528 108.962C52.2663 108.882 52.3946 108.826 52.5302 108.796L56.9541 107.753C57.2306 107.687 57.5223 107.732 57.7652 107.88C58.008 108.029 58.1823 108.267 58.2497 108.543C58.2823 108.678 58.2877 108.818 58.2655 108.955C58.2434 109.092 58.194 109.224 58.1204 109.341C58.0469 109.459 57.9505 109.561 57.837 109.641C57.7236 109.721 57.5953 109.777 57.4597 109.807L53.0042 110.882C52.8671 110.914 52.7248 110.918 52.586 110.894C52.4472 110.87 52.3147 110.818 52.1966 110.741C52.0785 110.664 51.9771 110.564 51.8987 110.447C51.8203 110.33 51.7664 110.198 51.7402 110.06Z" fill="#FFBD95"/>
<path d="M67.6956 107.69C64.7637 107.101 61.7989 106.689 58.8174 106.458C56.5221 107.125 54.2825 107.97 52.1191 108.986C52.1191 108.986 54.236 110.439 54.3624 111.766C54.4888 113.093 54.3624 116.474 54.3624 116.474C56.7855 116.573 59.212 116.403 61.5977 115.968C63.0742 115.48 64.5022 114.856 65.8631 114.104L67.6956 107.69Z" fill="#FFBD95"/>
<path d="M67.0635 114.673L65.5469 106.016L69.3699 104.499L70.7917 114.041L67.0635 114.673Z" fill="#BF5900"/>
<path d="M114.71 100.076C115.311 103.583 113.794 106.237 104.316 109.27C93.7431 111.943 82.9615 113.709 72.0884 114.547C71.5969 114.583 71.1101 114.43 70.7281 114.118C70.3461 113.807 70.098 113.361 70.0347 112.872L69.1816 105.51C69.1316 105.051 69.243 104.588 69.4966 104.202C69.7503 103.816 70.1304 103.53 70.5718 103.393C73.9841 102.414 82.0725 100.044 86.1483 98.97C91.3615 97.5482 112.941 90.0601 114.71 100.076Z" fill="#002D56"/>
<path d="M112.357 63.7454L59.1191 96.3569L67.107 109.397L120.345 76.7855L112.357 63.7454Z" fill="#CEE0FF"/>
<path d="M60.1136 104.752C62.3252 108.354 65.4848 110.439 67.1909 109.396C68.8971 108.354 68.4863 104.594 66.2746 100.992C64.063 97.3901 60.9034 95.3049 59.1973 96.3475C57.4911 97.3902 57.8071 101.118 60.1136 104.752Z" fill="#84AFFF"/>
<path d="M113.319 72.272C115.531 75.8739 118.69 77.9276 120.396 76.8849C122.102 75.8423 121.66 72.0824 119.48 68.4806C117.3 64.8787 114.109 62.825 112.403 63.8677C110.696 64.9103 111.107 68.6702 113.319 72.272Z" fill="#CEE0FF"/>
<path d="M118.312 87.406L67.4748 118.306L61.9141 109.27L112.719 78.3381L118.312 87.406Z" fill="#CEE0FF"/>
<path d="M112.625 84.7527C114.173 87.2491 116.732 88.4498 118.344 87.4703C119.956 86.4907 120.05 83.6468 118.344 81.1504C116.638 78.6541 114.236 77.4533 112.625 78.4329C111.013 79.4125 111.076 82.1616 112.625 84.7527Z" fill="#CEE0FF"/>
<g style="mix-blend-mode:multiply">
<path d="M61.9141 109.27L112.783 78.4328C113.54 78.1124 114.381 78.047 115.179 78.2465C115.977 78.446 116.688 78.8995 117.206 79.5386L64.6313 111.387L61.9141 109.27Z" fill="#D3E3FF"/>
</g>
<path d="M61.7563 115.59C63.3047 118.086 65.8642 119.319 67.4758 118.307C69.0873 117.296 69.1821 114.515 67.6338 111.988C66.0854 109.46 63.5259 108.259 61.9143 109.238C60.3028 110.218 60.1132 113.093 61.7563 115.59Z" fill="#9DC0FF"/>
<path d="M118.375 66.6233L65.1367 99.2349L70.2199 107.533L123.458 74.9216L118.375 66.6233Z" fill="#CEE0FF"/>
<path d="M64.6001 105.258C65.0935 106.26 65.9456 107.041 66.9873 107.445C68.0291 107.849 69.1846 107.846 70.2248 107.438C70.9536 106.623 71.4003 105.594 71.4987 104.505C71.5971 103.416 71.3418 102.324 70.7709 101.391C70.1999 100.459 69.3435 99.7349 68.3288 99.3271C67.3141 98.9193 66.1949 98.8494 65.1373 99.1277C64.2696 99.8799 63.7285 100.94 63.6282 102.084C63.528 103.228 63.8765 104.366 64.6001 105.258Z" fill="#9DC0FF"/>
<path d="M117.87 72.6833C118.335 73.7132 119.179 74.5244 120.226 74.9481C121.274 75.3718 122.445 75.3755 123.495 74.9584C124.349 74.2182 124.883 73.1752 124.983 72.0492C125.083 70.9233 124.742 69.8024 124.032 68.923C123.573 67.8877 122.73 67.0714 121.68 66.6468C120.63 66.2222 119.457 66.2226 118.407 66.6478C117.567 67.3966 117.043 68.4378 116.943 69.5591C116.843 70.6805 117.175 71.7978 117.87 72.6833Z" fill="#CEE0FF"/>
<g style="mix-blend-mode:multiply">
<path d="M63.9355 98.2117L118.343 66.6479L65.1362 99.2543L63.9355 98.2117Z" fill="#D3E3FF"/>
</g>
<path d="M89.2761 54.6731C85.2003 56.2529 84.0313 63.2986 87.2856 70.7551C90.5399 78.2116 93.6047 82.9193 94.4578 84.8466C95.3108 86.7739 99.8606 98.6854 101.567 101.655C103.273 104.625 107.317 107.437 110.666 106.079C113.32 104.91 116.227 103.993 114.963 98.2114C113.699 92.4295 102.135 49.681 89.2761 54.6731Z" fill="#002D56"/>
<g style="mix-blend-mode:multiply">
<path d="M81.3772 82.6983C81.3772 82.6983 83.9365 81.1185 85.0107 82.5403C86.0849 83.9621 83.8733 87.3428 83.8733 87.3428C83.8733 87.3428 88.0439 83.7093 91.6773 85.605C95.3108 87.5007 94.2997 92.9983 94.2997 92.9983C94.2997 92.9983 94.2997 92.8088 95.6899 93.1563C96.0527 93.2602 96.3864 93.447 96.6645 93.7021C96.9427 93.9571 97.1577 94.2734 97.2925 94.6258C97.4274 94.9783 97.4784 95.3573 97.4415 95.7328C97.4047 96.1084 97.2809 96.4703 97.0801 96.7898C96.543 97.6428 68.6443 116.189 68.6443 116.189L68.36 117.358L67.4121 118.306L102.167 97.2321L91.7089 76.4424L81.3772 82.6983Z" fill="#D3E3FF"/>
</g>
</svg>
